# https://github.com/mikedh/trimesh
v 0.00000000 0.00000000 0.00000000
v 0.02750000 0.00000000 0.00000000
v 0.02750000 0.00000000 0.00800000
v 0.00000000 0.00000000 0.00800000
v 0.02697160 0.00536498 0.00000000
v 0.02697160 0.00536498 0.00800000
v 0.02540669 0.01052379 0.00000000
v 0.02540669 0.01052379 0.00800000
v 0.02286541 0.01527818 0.00000000
v 0.02286541 0.01527818 0.00800000
v 0.01944544 0.01944544 0.00000000
v 0.01944544 0.01944544 0.00800000
v 0.01527818 0.02286541 0.00000000
v 0.01527818 0.02286541 0.00800000
v 0.01052379 0.02540669 0.00000000
v 0.01052379 0.02540669 0.00800000
v 0.00536498 0.02697160 0.00000000
v 0.00536498 0.02697160 0.00800000
v 0.00000000 0.02750000 0.00000000
v 0.00000000 0.02750000 0.00800000
v -0.00536498 0.02697160 0.00000000
v -0.00536498 0.02697160 0.00800000
v -0.01052379 0.02540669 0.00000000
v -0.01052379 0.02540669 0.00800000
v -0.01527818 0.02286541 0.00000000
v -0.01527818 0.02286541 0.00800000
v -0.01944544 0.01944544 0.00000000
v -0.01944544 0.01944544 0.00800000
v -0.02286541 0.01527818 0.00000000
v -0.02286541 0.01527818 0.00800000
v -0.02540669 0.01052379 0.00000000
v -0.02540669 0.01052379 0.00800000
v -0.02697160 0.00536498 0.00000000
v -0.02697160 0.00536498 0.00800000
v -0.02750000 0.00000000 0.00000000
v -0.02750000 0.00000000 0.00800000
v -0.02697160 -0.00536498 0.00000000
v -0.02697160 -0.00536498 0.00800000
v -0.02540669 -0.01052379 0.00000000
v -0.02540669 -0.01052379 0.00800000
v -0.02286541 -0.01527818 0.00000000
v -0.02286541 -0.01527818 0.00800000
v -0.01944544 -0.01944544 0.00000000
v -0.01944544 -0.01944544 0.00800000
v -0.01527818 -0.02286541 0.00000000
v -0.01527818 -0.02286541 0.00800000
v -0.01052379 -0.02540669 0.00000000
v -0.01052379 -0.02540669 0.00800000
v -0.00536498 -0.02697160 0.00000000
v -0.00536498 -0.02697160 0.00800000
v -0.00000000 -0.02750000 0.00000000
v -0.00000000 -0.02750000 0.00800000
v 0.00536498 -0.02697160 0.00000000
v 0.00536498 -0.02697160 0.00800000
v 0.01052379 -0.02540669 0.00000000
v 0.01052379 -0.02540669 0.00800000
v 0.01527818 -0.02286541 0.00000000
v 0.01527818 -0.02286541 0.00800000
v 0.01944544 -0.01944544 0.00000000
v 0.01944544 -0.01944544 0.00800000
v 0.02286541 -0.01527818 0.00000000
v 0.02286541 -0.01527818 0.00800000
v 0.02540669 -0.01052379 0.00000000
v 0.02540669 -0.01052379 0.00800000
v 0.02697160 -0.00536498 0.00000000
v 0.02697160 -0.00536498 0.00800000
v 0.00000000 0.00000000 0.00600000
v 0.01100000 0.00000000 0.00600000
v 0.01100000 0.00000000 0.02500000
v 0.00000000 0.00000000 0.02500000
v 0.01046162 0.00339919 0.00600000
v 0.01046162 0.00339919 0.02500000
v 0.00889919 0.00646564 0.00600000
v 0.00889919 0.00646564 0.02500000
v 0.00646564 0.00889919 0.00600000
v 0.00646564 0.00889919 0.02500000
v 0.00339919 0.01046162 0.00600000
v 0.00339919 0.01046162 0.02500000
v 0.00000000 0.01100000 0.00600000
v 0.00000000 0.01100000 0.02500000
v -0.00339919 0.01046162 0.00600000
v -0.00339919 0.01046162 0.02500000
v -0.00646564 0.00889919 0.00600000
v -0.00646564 0.00889919 0.02500000
v -0.00889919 0.00646564 0.00600000
v -0.00889919 0.00646564 0.02500000
v -0.01046162 0.00339919 0.00600000
v -0.01046162 0.00339919 0.02500000
v -0.01100000 0.00000000 0.00600000
v -0.01100000 0.00000000 0.02500000
v -0.01046162 -0.00339919 0.00600000
v -0.01046162 -0.00339919 0.02500000
v -0.00889919 -0.00646564 0.00600000
v -0.00889919 -0.00646564 0.02500000
v -0.00646564 -0.00889919 0.00600000
v -0.00646564 -0.00889919 0.02500000
v -0.00339919 -0.01046162 0.00600000
v -0.00339919 -0.01046162 0.02500000
v -0.00000000 -0.01100000 0.00600000
v -0.00000000 -0.01100000 0.02500000
v 0.00339919 -0.01046162 0.00600000
v 0.00339919 -0.01046162 0.02500000
v 0.00646564 -0.00889919 0.00600000
v 0.00646564 -0.00889919 0.02500000
v 0.00889919 -0.00646564 0.00600000
v 0.00889919 -0.00646564 0.02500000
v 0.01046162 -0.00339919 0.00600000
v 0.01046162 -0.00339919 0.02500000
v -0.01366901 0.02211692 0.04240000
v 0.01366901 0.02211692 0.04240000
v -0.01366901 -0.02211692 0.04240000
v 0.01366901 -0.02211692 0.04240000
v 0.00000000 -0.01366901 0.06451692
v 0.00000000 0.01366901 0.06451692
v 0.00000000 -0.01366901 0.02028308
v 0.00000000 0.01366901 0.02028308
v 0.02211692 0.00000000 0.02873099
v 0.02211692 0.00000000 0.05606901
v -0.02211692 0.00000000 0.02873099
v -0.02211692 0.00000000 0.05606901
v 0.00000000 0.02600000 0.04240000
v 0.00000000 -0.02600000 0.04240000
v -0.00803444 -0.02103444 0.05540000
v 0.00803444 -0.02103444 0.05540000
v -0.00803444 0.02103444 0.05540000
v 0.00803444 0.02103444 0.05540000
v 0.00000000 0.00000000 0.06840000
v -0.00803444 -0.02103444 0.02940000
v 0.00803444 -0.02103444 0.02940000
v -0.00803444 0.02103444 0.02940000
v 0.00803444 0.02103444 0.02940000
v 0.00000000 0.00000000 0.01640000
v 0.02103444 0.01300000 0.03436556
v 0.02103444 -0.01300000 0.03436556
v 0.01300000 -0.00803444 0.02136556
v 0.01300000 0.00803444 0.02136556
v 0.02103444 0.01300000 0.05043444
v 0.02103444 -0.01300000 0.05043444
v 0.01300000 -0.00803444 0.06343444
v 0.01300000 0.00803444 0.06343444
v 0.02600000 0.00000000 0.04240000
v -0.02103444 0.01300000 0.03436556
v -0.02103444 -0.01300000 0.03436556
v -0.01300000 -0.00803444 0.02136556
v -0.01300000 0.00803444 0.02136556
v -0.02103444 0.01300000 0.05043444
v -0.02103444 -0.01300000 0.05043444
v -0.01300000 -0.00803444 0.06343444
v -0.01300000 0.00803444 0.06343444
v -0.02600000 0.00000000 0.04240000
f 2 1 5
f 2 5 3
f 3 5 6
f 3 6 4
f 5 1 7
f 5 7 6
f 6 7 8
f 6 8 4
f 7 1 9
f 7 9 8
f 8 9 10
f 8 10 4
f 9 1 11
f 9 11 10
f 10 11 12
f 10 12 4
f 11 1 13
f 11 13 12
f 12 13 14
f 12 14 4
f 13 1 15
f 13 15 14
f 14 15 16
f 14 16 4
f 15 1 17
f 15 17 16
f 16 17 18
f 16 18 4
f 17 1 19
f 17 19 18
f 18 19 20
f 18 20 4
f 19 1 21
f 19 21 20
f 20 21 22
f 20 22 4
f 21 1 23
f 21 23 22
f 22 23 24
f 22 24 4
f 23 1 25
f 23 25 24
f 24 25 26
f 24 26 4
f 25 1 27
f 25 27 26
f 26 27 28
f 26 28 4
f 27 1 29
f 27 29 28
f 28 29 30
f 28 30 4
f 29 1 31
f 29 31 30
f 30 31 32
f 30 32 4
f 31 1 33
f 31 33 32
f 32 33 34
f 32 34 4
f 33 1 35
f 33 35 34
f 34 35 36
f 34 36 4
f 35 1 37
f 35 37 36
f 36 37 38
f 36 38 4
f 37 1 39
f 37 39 38
f 38 39 40
f 38 40 4
f 39 1 41
f 39 41 40
f 40 41 42
f 40 42 4
f 41 1 43
f 41 43 42
f 42 43 44
f 42 44 4
f 43 1 45
f 43 45 44
f 44 45 46
f 44 46 4
f 45 1 47
f 45 47 46
f 46 47 48
f 46 48 4
f 47 1 49
f 47 49 48
f 48 49 50
f 48 50 4
f 49 1 51
f 49 51 50
f 50 51 52
f 50 52 4
f 51 1 53
f 51 53 52
f 52 53 54
f 52 54 4
f 53 1 55
f 53 55 54
f 54 55 56
f 54 56 4
f 55 1 57
f 55 57 56
f 56 57 58
f 56 58 4
f 57 1 59
f 57 59 58
f 58 59 60
f 58 60 4
f 59 1 61
f 59 61 60
f 60 61 62
f 60 62 4
f 61 1 63
f 61 63 62
f 62 63 64
f 62 64 4
f 63 1 65
f 63 65 64
f 64 65 66
f 64 66 4
f 65 1 2
f 65 2 66
f 66 2 3
f 66 3 4
f 68 67 71
f 68 71 69
f 69 71 72
f 69 72 70
f 71 67 73
f 71 73 72
f 72 73 74
f 72 74 70
f 73 67 75
f 73 75 74
f 74 75 76
f 74 76 70
f 75 67 77
f 75 77 76
f 76 77 78
f 76 78 70
f 77 67 79
f 77 79 78
f 78 79 80
f 78 80 70
f 79 67 81
f 79 81 80
f 80 81 82
f 80 82 70
f 81 67 83
f 81 83 82
f 82 83 84
f 82 84 70
f 83 67 85
f 83 85 84
f 84 85 86
f 84 86 70
f 85 67 87
f 85 87 86
f 86 87 88
f 86 88 70
f 87 67 89
f 87 89 88
f 88 89 90
f 88 90 70
f 89 67 91
f 89 91 90
f 90 91 92
f 90 92 70
f 91 67 93
f 91 93 92
f 92 93 94
f 92 94 70
f 93 67 95
f 93 95 94
f 94 95 96
f 94 96 70
f 95 67 97
f 95 97 96
f 96 97 98
f 96 98 70
f 97 67 99
f 97 99 98
f 98 99 100
f 98 100 70
f 99 67 101
f 99 101 100
f 100 101 102
f 100 102 70
f 101 67 103
f 101 103 102
f 102 103 104
f 102 104 70
f 103 67 105
f 103 105 104
f 104 105 106
f 104 106 70
f 105 67 107
f 105 107 106
f 106 107 108
f 106 108 70
f 107 67 68
f 107 68 108
f 108 68 69
f 108 69 70
f 109 146 125
f 146 120 149
f 125 149 114
f 146 149 125
f 109 125 121
f 125 114 126
f 121 126 110
f 125 126 121
f 109 121 130
f 121 110 131
f 130 131 116
f 121 131 130
f 109 130 142
f 130 116 145
f 142 145 119
f 130 145 142
f 109 142 146
f 142 119 150
f 146 150 120
f 142 150 146
f 110 126 137
f 126 114 140
f 137 140 118
f 126 140 137
f 114 149 127
f 149 120 148
f 127 148 113
f 149 148 127
f 120 150 147
f 150 119 143
f 147 143 111
f 150 143 147
f 119 145 144
f 145 116 132
f 144 132 115
f 145 132 144
f 116 131 136
f 131 110 133
f 136 133 117
f 131 133 136
f 112 138 124
f 138 118 139
f 124 139 113
f 138 139 124
f 112 124 122
f 124 113 123
f 122 123 111
f 124 123 122
f 112 122 129
f 122 111 128
f 129 128 115
f 122 128 129
f 112 129 134
f 129 115 135
f 134 135 117
f 129 135 134
f 112 134 138
f 134 117 141
f 138 141 118
f 134 141 138
f 113 139 127
f 139 118 140
f 127 140 114
f 139 140 127
f 111 123 147
f 123 113 148
f 147 148 120
f 123 148 147
f 115 128 144
f 128 111 143
f 144 143 119
f 128 143 144
f 117 135 136
f 135 115 132
f 136 132 116
f 135 132 136
f 118 141 137
f 141 117 133
f 137 133 110
f 141 133 137

