# https://github.com/mikedh/trimesh
v -0.04500000 -0.07000000 0.00000000
v -0.04500000 -0.07000000 0.00500000
v -0.04500000 0.07000000 0.00000000
v -0.04500000 0.07000000 0.00500000
v 0.04500000 -0.07000000 0.00000000
v 0.04500000 -0.07000000 0.00500000
v 0.04500000 0.07000000 0.00000000
v 0.04500000 0.07000000 0.00500000
v 0.04100000 -0.01000000 0.02500000
v 0.03924264 -0.01000000 0.02924264
v 0.03500000 -0.01000000 0.03100000
v 0.03075736 -0.01000000 0.02924264
v 0.02900000 -0.01000000 0.02500000
v 0.03075736 -0.01000000 0.02075736
v 0.03500000 -0.01000000 0.01900000
v 0.03924264 -0.01000000 0.02075736
v 0.03997204 -0.00087664 0.02500000
v 0.03825875 -0.00126769 0.02924264
v 0.03412248 -0.00221177 0.03100000
v 0.02998621 -0.00315584 0.02924264
v 0.02827291 -0.00354689 0.02500000
v 0.02998621 -0.00315584 0.02075736
v 0.03412248 -0.00221177 0.01900000
v 0.03825875 -0.00126769 0.02075736
v 0.03693972 0.00778923 0.02500000
v 0.03535640 0.00702674 0.02924264
v 0.03153391 0.00518593 0.03100000
v 0.02771142 0.00334512 0.02924264
v 0.02612810 0.00258263 0.02500000
v 0.02771142 0.00334512 0.02075736
v 0.03153391 0.00518593 0.01900000
v 0.03535640 0.00702674 0.02075736
v 0.03205509 0.01556308 0.02500000
v 0.03068113 0.01446739 0.02924264
v 0.02736410 0.01182214 0.03100000
v 0.02404707 0.00917690 0.02924264
v 0.02267311 0.00808120 0.02500000
v 0.02404707 0.00917690 0.02075736
v 0.02736410 0.01182214 0.01900000
v 0.03068113 0.01446739 0.02075736
v 0.02556308 0.02205509 0.02500000
v 0.02446739 0.02068113 0.02924264
v 0.02182214 0.01736410 0.03100000
v 0.01917690 0.01404707 0.02924264
v 0.01808120 0.01267311 0.02500000
v 0.01917690 0.01404707 0.02075736
v 0.02182214 0.01736410 0.01900000
v 0.02446739 0.02068113 0.02075736
v 0.01778923 0.02693972 0.02500000
v 0.01702674 0.02535640 0.02924264
v 0.01518593 0.02153391 0.03100000
v 0.01334512 0.01771142 0.02924264
v 0.01258263 0.01612810 0.02500000
v 0.01334512 0.01771142 0.02075736
v 0.01518593 0.02153391 0.01900000
v 0.01702674 0.02535640 0.02075736
v 0.00912336 0.02997204 0.02500000
v 0.00873231 0.02825875 0.02924264
v 0.00778823 0.02412248 0.03100000
v 0.00684416 0.01998621 0.02924264
v 0.00645311 0.01827291 0.02500000
v 0.00684416 0.01998621 0.02075736
v 0.00778823 0.02412248 0.01900000
v 0.00873231 0.02825875 0.02075736
v 0.00000000 0.03100000 0.02500000
v 0.00000000 0.02924264 0.02924264
v 0.00000000 0.02500000 0.03100000
v 0.00000000 0.02075736 0.02924264
v 0.00000000 0.01900000 0.02500000
v 0.00000000 0.02075736 0.02075736
v 0.00000000 0.02500000 0.01900000
v 0.00000000 0.02924264 0.02075736
v -0.00912336 0.02997204 0.02500000
v -0.00873231 0.02825875 0.02924264
v -0.00778823 0.02412248 0.03100000
v -0.00684416 0.01998621 0.02924264
v -0.00645311 0.01827291 0.02500000
v -0.00684416 0.01998621 0.02075736
v -0.00778823 0.02412248 0.01900000
v -0.00873231 0.02825875 0.02075736
v -0.01778923 0.02693972 0.02500000
v -0.01702674 0.02535640 0.02924264
v -0.01518593 0.02153391 0.03100000
v -0.01334512 0.01771142 0.02924264
v -0.01258263 0.01612810 0.02500000
v -0.01334512 0.01771142 0.02075736
v -0.01518593 0.02153391 0.01900000
v -0.01702674 0.02535640 0.02075736
v -0.02556308 0.02205509 0.02500000
v -0.02446739 0.02068113 0.02924264
v -0.02182214 0.01736410 0.03100000
v -0.01917690 0.01404707 0.02924264
v -0.01808120 0.01267311 0.02500000
v -0.01917690 0.01404707 0.02075736
v -0.02182214 0.01736410 0.01900000
v -0.02446739 0.02068113 0.02075736
v -0.03205509 0.01556308 0.02500000
v -0.03068113 0.01446739 0.02924264
v -0.02736410 0.01182214 0.03100000
v -0.02404707 0.00917690 0.02924264
v -0.02267311 0.00808120 0.02500000
v -0.02404707 0.00917690 0.02075736
v -0.02736410 0.01182214 0.01900000
v -0.03068113 0.01446739 0.02075736
v -0.03693972 0.00778923 0.02500000
v -0.03535640 0.00702674 0.02924264
v -0.03153391 0.00518593 0.03100000
v -0.02771142 0.00334512 0.02924264
v -0.02612810 0.00258263 0.02500000
v -0.02771142 0.00334512 0.02075736
v -0.03153391 0.00518593 0.01900000
v -0.03535640 0.00702674 0.02075736
v -0.03997204 -0.00087664 0.02500000
v -0.03825875 -0.00126769 0.02924264
v -0.03412248 -0.00221177 0.03100000
v -0.02998621 -0.00315584 0.02924264
v -0.02827291 -0.00354689 0.02500000
v -0.02998621 -0.00315584 0.02075736
v -0.03412248 -0.00221177 0.01900000
v -0.03825875 -0.00126769 0.02075736
v -0.04100000 -0.01000000 0.02500000
v -0.03924264 -0.01000000 0.02924264
v -0.03500000 -0.01000000 0.03100000
v -0.03075736 -0.01000000 0.02924264
v -0.02900000 -0.01000000 0.02500000
v -0.03075736 -0.01000000 0.02075736
v -0.03500000 -0.01000000 0.01900000
v -0.03924264 -0.01000000 0.02075736
v -0.03997204 -0.01912336 0.02500000
v -0.03825875 -0.01873231 0.02924264
v -0.03412248 -0.01778823 0.03100000
v -0.02998621 -0.01684416 0.02924264
v -0.02827291 -0.01645311 0.02500000
v -0.02998621 -0.01684416 0.02075736
v -0.03412248 -0.01778823 0.01900000
v -0.03825875 -0.01873231 0.02075736
v -0.03693972 -0.02778923 0.02500000
v -0.03535640 -0.02702674 0.02924264
v -0.03153391 -0.02518593 0.03100000
v -0.02771142 -0.02334512 0.02924264
v -0.02612810 -0.02258263 0.02500000
v -0.02771142 -0.02334512 0.02075736
v -0.03153391 -0.02518593 0.01900000
v -0.03535640 -0.02702674 0.02075736
v -0.03205509 -0.03556308 0.02500000
v -0.03068113 -0.03446739 0.02924264
v -0.02736410 -0.03182214 0.03100000
v -0.02404707 -0.02917690 0.02924264
v -0.02267311 -0.02808120 0.02500000
v -0.02404707 -0.02917690 0.02075736
v -0.02736410 -0.03182214 0.01900000
v -0.03068113 -0.03446739 0.02075736
v -0.02556308 -0.04205509 0.02500000
v -0.02446739 -0.04068113 0.02924264
v -0.02182214 -0.03736410 0.03100000
v -0.01917690 -0.03404707 0.02924264
v -0.01808120 -0.03267311 0.02500000
v -0.01917690 -0.03404707 0.02075736
v -0.02182214 -0.03736410 0.01900000
v -0.02446739 -0.04068113 0.02075736
v -0.01778923 -0.04693972 0.02500000
v -0.01702674 -0.04535640 0.02924264
v -0.01518593 -0.04153391 0.03100000
v -0.01334512 -0.03771142 0.02924264
v -0.01258263 -0.03612810 0.02500000
v -0.01334512 -0.03771142 0.02075736
v -0.01518593 -0.04153391 0.01900000
v -0.01702674 -0.04535640 0.02075736
v -0.00912336 -0.04997204 0.02500000
v -0.00873231 -0.04825875 0.02924264
v -0.00778823 -0.04412248 0.03100000
v -0.00684416 -0.03998621 0.02924264
v -0.00645311 -0.03827291 0.02500000
v -0.00684416 -0.03998621 0.02075736
v -0.00778823 -0.04412248 0.01900000
v -0.00873231 -0.04825875 0.02075736
v -0.00000000 -0.05100000 0.02500000
v -0.00000000 -0.04924264 0.02924264
v -0.00000000 -0.04500000 0.03100000
v -0.00000000 -0.04075736 0.02924264
v -0.00000000 -0.03900000 0.02500000
v -0.00000000 -0.04075736 0.02075736
v -0.00000000 -0.04500000 0.01900000
v -0.00000000 -0.04924264 0.02075736
v 0.00912336 -0.04997204 0.02500000
v 0.00873231 -0.04825875 0.02924264
v 0.00778823 -0.04412248 0.03100000
v 0.00684416 -0.03998621 0.02924264
v 0.00645311 -0.03827291 0.02500000
v 0.00684416 -0.03998621 0.02075736
v 0.00778823 -0.04412248 0.01900000
v 0.00873231 -0.04825875 0.02075736
v 0.01778923 -0.04693972 0.02500000
v 0.01702674 -0.04535640 0.02924264
v 0.01518593 -0.04153391 0.03100000
v 0.01334512 -0.03771142 0.02924264
v 0.01258263 -0.03612810 0.02500000
v 0.01334512 -0.03771142 0.02075736
v 0.01518593 -0.04153391 0.01900000
v 0.01702674 -0.04535640 0.02075736
v 0.02556308 -0.04205509 0.02500000
v 0.02446739 -0.04068113 0.02924264
v 0.02182214 -0.03736410 0.03100000
v 0.01917690 -0.03404707 0.02924264
v 0.01808120 -0.03267311 0.02500000
v 0.01917690 -0.03404707 0.02075736
v 0.02182214 -0.03736410 0.01900000
v 0.02446739 -0.04068113 0.02075736
v 0.03205509 -0.03556308 0.02500000
v 0.03068113 -0.03446739 0.02924264
v 0.02736410 -0.03182214 0.03100000
v 0.02404707 -0.02917690 0.02924264
v 0.02267311 -0.02808120 0.02500000
v 0.02404707 -0.02917690 0.02075736
v 0.02736410 -0.03182214 0.01900000
v 0.03068113 -0.03446739 0.02075736
v 0.03693972 -0.02778923 0.02500000
v 0.03535640 -0.02702674 0.02924264
v 0.03153391 -0.02518593 0.03100000
v 0.02771142 -0.02334512 0.02924264
v 0.02612810 -0.02258263 0.02500000
v 0.02771142 -0.02334512 0.02075736
v 0.03153391 -0.02518593 0.01900000
v 0.03535640 -0.02702674 0.02075736
v 0.03997204 -0.01912336 0.02500000
v 0.03825875 -0.01873231 0.02924264
v 0.03412248 -0.01778823 0.03100000
v 0.02998621 -0.01684416 0.02924264
v 0.02827291 -0.01645311 0.02500000
v 0.02998621 -0.01684416 0.02075736
v 0.03412248 -0.01778823 0.01900000
v 0.03825875 -0.01873231 0.02075736
f 2 4 1
f 5 2 1
f 1 4 3
f 3 5 1
f 2 8 4
f 6 2 5
f 6 8 2
f 4 8 3
f 7 5 3
f 3 8 7
f 7 6 5
f 8 6 7
f 9 17 10
f 10 17 18
f 10 18 11
f 11 18 19
f 11 19 12
f 12 19 20
f 12 20 13
f 13 20 21
f 13 21 14
f 14 21 22
f 14 22 15
f 15 22 23
f 15 23 16
f 16 23 24
f 16 24 9
f 9 24 17
f 17 25 18
f 18 25 26
f 18 26 19
f 19 26 27
f 19 27 20
f 20 27 28
f 20 28 21
f 21 28 29
f 21 29 22
f 22 29 30
f 22 30 23
f 23 30 31
f 23 31 24
f 24 31 32
f 24 32 17
f 17 32 25
f 25 33 26
f 26 33 34
f 26 34 27
f 27 34 35
f 27 35 28
f 28 35 36
f 28 36 29
f 29 36 37
f 29 37 30
f 30 37 38
f 30 38 31
f 31 38 39
f 31 39 32
f 32 39 40
f 32 40 25
f 25 40 33
f 33 41 34
f 34 41 42
f 34 42 35
f 35 42 43
f 35 43 36
f 36 43 44
f 36 44 37
f 37 44 45
f 37 45 38
f 38 45 46
f 38 46 39
f 39 46 47
f 39 47 40
f 40 47 48
f 40 48 33
f 33 48 41
f 41 49 42
f 42 49 50
f 42 50 43
f 43 50 51
f 43 51 44
f 44 51 52
f 44 52 45
f 45 52 53
f 45 53 46
f 46 53 54
f 46 54 47
f 47 54 55
f 47 55 48
f 48 55 56
f 48 56 41
f 41 56 49
f 49 57 50
f 50 57 58
f 50 58 51
f 51 58 59
f 51 59 52
f 52 59 60
f 52 60 53
f 53 60 61
f 53 61 54
f 54 61 62
f 54 62 55
f 55 62 63
f 55 63 56
f 56 63 64
f 56 64 49
f 49 64 57
f 57 65 58
f 58 65 66
f 58 66 59
f 59 66 67
f 59 67 60
f 60 67 68
f 60 68 61
f 61 68 69
f 61 69 62
f 62 69 70
f 62 70 63
f 63 70 71
f 63 71 64
f 64 71 72
f 64 72 57
f 57 72 65
f 65 73 66
f 66 73 74
f 66 74 67
f 67 74 75
f 67 75 68
f 68 75 76
f 68 76 69
f 69 76 77
f 69 77 70
f 70 77 78
f 70 78 71
f 71 78 79
f 71 79 72
f 72 79 80
f 72 80 65
f 65 80 73
f 73 81 74
f 74 81 82
f 74 82 75
f 75 82 83
f 75 83 76
f 76 83 84
f 76 84 77
f 77 84 85
f 77 85 78
f 78 85 86
f 78 86 79
f 79 86 87
f 79 87 80
f 80 87 88
f 80 88 73
f 73 88 81
f 81 89 82
f 82 89 90
f 82 90 83
f 83 90 91
f 83 91 84
f 84 91 92
f 84 92 85
f 85 92 93
f 85 93 86
f 86 93 94
f 86 94 87
f 87 94 95
f 87 95 88
f 88 95 96
f 88 96 81
f 81 96 89
f 89 97 90
f 90 97 98
f 90 98 91
f 91 98 99
f 91 99 92
f 92 99 100
f 92 100 93
f 93 100 101
f 93 101 94
f 94 101 102
f 94 102 95
f 95 102 103
f 95 103 96
f 96 103 104
f 96 104 89
f 89 104 97
f 97 105 98
f 98 105 106
f 98 106 99
f 99 106 107
f 99 107 100
f 100 107 108
f 100 108 101
f 101 108 109
f 101 109 102
f 102 109 110
f 102 110 103
f 103 110 111
f 103 111 104
f 104 111 112
f 104 112 97
f 97 112 105
f 105 113 106
f 106 113 114
f 106 114 107
f 107 114 115
f 107 115 108
f 108 115 116
f 108 116 109
f 109 116 117
f 109 117 110
f 110 117 118
f 110 118 111
f 111 118 119
f 111 119 112
f 112 119 120
f 112 120 105
f 105 120 113
f 113 121 114
f 114 121 122
f 114 122 115
f 115 122 123
f 115 123 116
f 116 123 124
f 116 124 117
f 117 124 125
f 117 125 118
f 118 125 126
f 118 126 119
f 119 126 127
f 119 127 120
f 120 127 128
f 120 128 113
f 113 128 121
f 121 129 122
f 122 129 130
f 122 130 123
f 123 130 131
f 123 131 124
f 124 131 132
f 124 132 125
f 125 132 133
f 125 133 126
f 126 133 134
f 126 134 127
f 127 134 135
f 127 135 128
f 128 135 136
f 128 136 121
f 121 136 129
f 129 137 130
f 130 137 138
f 130 138 131
f 131 138 139
f 131 139 132
f 132 139 140
f 132 140 133
f 133 140 141
f 133 141 134
f 134 141 142
f 134 142 135
f 135 142 143
f 135 143 136
f 136 143 144
f 136 144 129
f 129 144 137
f 137 145 138
f 138 145 146
f 138 146 139
f 139 146 147
f 139 147 140
f 140 147 148
f 140 148 141
f 141 148 149
f 141 149 142
f 142 149 150
f 142 150 143
f 143 150 151
f 143 151 144
f 144 151 152
f 144 152 137
f 137 152 145
f 145 153 146
f 146 153 154
f 146 154 147
f 147 154 155
f 147 155 148
f 148 155 156
f 148 156 149
f 149 156 157
f 149 157 150
f 150 157 158
f 150 158 151
f 151 158 159
f 151 159 152
f 152 159 160
f 152 160 145
f 145 160 153
f 153 161 154
f 154 161 162
f 154 162 155
f 155 162 163
f 155 163 156
f 156 163 164
f 156 164 157
f 157 164 165
f 157 165 158
f 158 165 166
f 158 166 159
f 159 166 167
f 159 167 160
f 160 167 168
f 160 168 153
f 153 168 161
f 161 169 162
f 162 169 170
f 162 170 163
f 163 170 171
f 163 171 164
f 164 171 172
f 164 172 165
f 165 172 173
f 165 173 166
f 166 173 174
f 166 174 167
f 167 174 175
f 167 175 168
f 168 175 176
f 168 176 161
f 161 176 169
f 169 177 170
f 170 177 178
f 170 178 171
f 171 178 179
f 171 179 172
f 172 179 180
f 172 180 173
f 173 180 181
f 173 181 174
f 174 181 182
f 174 182 175
f 175 182 183
f 175 183 176
f 176 183 184
f 176 184 169
f 169 184 177
f 177 185 178
f 178 185 186
f 178 186 179
f 179 186 187
f 179 187 180
f 180 187 188
f 180 188 181
f 181 188 189
f 181 189 182
f 182 189 190
f 182 190 183
f 183 190 191
f 183 191 184
f 184 191 192
f 184 192 177
f 177 192 185
f 185 193 186
f 186 193 194
f 186 194 187
f 187 194 195
f 187 195 188
f 188 195 196
f 188 196 189
f 189 196 197
f 189 197 190
f 190 197 198
f 190 198 191
f 191 198 199
f 191 199 192
f 192 199 200
f 192 200 185
f 185 200 193
f 193 201 194
f 194 201 202
f 194 202 195
f 195 202 203
f 195 203 196
f 196 203 204
f 196 204 197
f 197 204 205
f 197 205 198
f 198 205 206
f 198 206 199
f 199 206 207
f 199 207 200
f 200 207 208
f 200 208 193
f 193 208 201
f 201 209 202
f 202 209 210
f 202 210 203
f 203 210 211
f 203 211 204
f 204 211 212
f 204 212 205
f 205 212 213
f 205 213 206
f 206 213 214
f 206 214 207
f 207 214 215
f 207 215 208
f 208 215 216
f 208 216 201
f 201 216 209
f 209 217 210
f 210 217 218
f 210 218 211
f 211 218 219
f 211 219 212
f 212 219 220
f 212 220 213
f 213 220 221
f 213 221 214
f 214 221 222
f 214 222 215
f 215 222 223
f 215 223 216
f 216 223 224
f 216 224 209
f 209 224 217
f 217 225 218
f 218 225 226
f 218 226 219
f 219 226 227
f 219 227 220
f 220 227 228
f 220 228 221
f 221 228 229
f 221 229 222
f 222 229 230
f 222 230 223
f 223 230 231
f 223 231 224
f 224 231 232
f 224 232 217
f 217 232 225
f 225 9 226
f 226 9 10
f 226 10 227
f 227 10 11
f 227 11 228
f 228 11 12
f 228 12 229
f 229 12 13
f 229 13 230
f 230 13 14
f 230 14 231
f 231 14 15
f 231 15 232
f 232 15 16
f 232 16 225
f 225 16 9

