# https://github.com/mikedh/trimesh
v 0.00000000 0.00000000 0.00000000
v 0.04000000 0.00000000 0.00000000
v 0.04000000 0.00000000 0.01000000
v 0.00000000 0.00000000 0.01000000
v 0.03923141 0.00780361 0.00000000
v 0.03923141 0.00780361 0.01000000
v 0.03695518 0.01530734 0.00000000
v 0.03695518 0.01530734 0.01000000
v 0.03325878 0.02222281 0.00000000
v 0.03325878 0.02222281 0.01000000
v 0.02828427 0.02828427 0.00000000
v 0.02828427 0.02828427 0.01000000
v 0.02222281 0.03325878 0.00000000
v 0.02222281 0.03325878 0.01000000
v 0.01530734 0.03695518 0.00000000
v 0.01530734 0.03695518 0.01000000
v 0.00780361 0.03923141 0.00000000
v 0.00780361 0.03923141 0.01000000
v 0.00000000 0.04000000 0.00000000
v 0.00000000 0.04000000 0.01000000
v -0.00780361 0.03923141 0.00000000
v -0.00780361 0.03923141 0.01000000
v -0.01530734 0.03695518 0.00000000
v -0.01530734 0.03695518 0.01000000
v -0.02222281 0.03325878 0.00000000
v -0.02222281 0.03325878 0.01000000
v -0.02828427 0.02828427 0.00000000
v -0.02828427 0.02828427 0.01000000
v -0.03325878 0.02222281 0.00000000
v -0.03325878 0.02222281 0.01000000
v -0.03695518 0.01530734 0.00000000
v -0.03695518 0.01530734 0.01000000
v -0.03923141 0.00780361 0.00000000
v -0.03923141 0.00780361 0.01000000
v -0.04000000 0.00000000 0.00000000
v -0.04000000 0.00000000 0.01000000
v -0.03923141 -0.00780361 0.00000000
v -0.03923141 -0.00780361 0.01000000
v -0.03695518 -0.01530734 0.00000000
v -0.03695518 -0.01530734 0.01000000
v -0.03325878 -0.02222281 0.00000000
v -0.03325878 -0.02222281 0.01000000
v -0.02828427 -0.02828427 0.00000000
v -0.02828427 -0.02828427 0.01000000
v -0.02222281 -0.03325878 0.00000000
v -0.02222281 -0.03325878 0.01000000
v -0.01530734 -0.03695518 0.00000000
v -0.01530734 -0.03695518 0.01000000
v -0.00780361 -0.03923141 0.00000000
v -0.00780361 -0.03923141 0.01000000
v -0.00000000 -0.04000000 0.00000000
v -0.00000000 -0.04000000 0.01000000
v 0.00780361 -0.03923141 0.00000000
v 0.00780361 -0.03923141 0.01000000
v 0.01530734 -0.03695518 0.00000000
v 0.01530734 -0.03695518 0.01000000
v 0.02222281 -0.03325878 0.00000000
v 0.02222281 -0.03325878 0.01000000
v 0.02828427 -0.02828427 0.00000000
v 0.02828427 -0.02828427 0.01000000
v 0.03325878 -0.02222281 0.00000000
v 0.03325878 -0.02222281 0.01000000
v 0.03695518 -0.01530734 0.00000000
v 0.03695518 -0.01530734 0.01000000
v 0.03923141 -0.00780361 0.00000000
v 0.03923141 -0.00780361 0.01000000
v 0.00000000 0.00000000 0.00400000
v 0.01950000 0.00000000 0.00400000
v 0.01950000 0.00000000 0.04900000
v 0.00000000 0.00000000 0.04900000
v 0.01883555 0.00504697 0.00400000
v 0.01883555 0.00504697 0.04900000
v 0.01688750 0.00975000 0.00400000
v 0.01688750 0.00975000 0.04900000
v 0.01378858 0.01378858 0.00400000
v 0.01378858 0.01378858 0.04900000
v 0.00975000 0.01688750 0.00400000
v 0.00975000 0.01688750 0.04900000
v 0.00504697 0.01883555 0.00400000
v 0.00504697 0.01883555 0.04900000
v 0.00000000 0.01950000 0.00400000
v 0.00000000 0.01950000 0.04900000
v -0.00504697 0.01883555 0.00400000
v -0.00504697 0.01883555 0.04900000
v -0.00975000 0.01688750 0.00400000
v -0.00975000 0.01688750 0.04900000
v -0.01378858 0.01378858 0.00400000
v -0.01378858 0.01378858 0.04900000
v -0.01688750 0.00975000 0.00400000
v -0.01688750 0.00975000 0.04900000
v -0.01883555 0.00504697 0.00400000
v -0.01883555 0.00504697 0.04900000
v -0.01950000 0.00000000 0.00400000
v -0.01950000 0.00000000 0.04900000
v -0.01883555 -0.00504697 0.00400000
v -0.01883555 -0.00504697 0.04900000
v -0.01688750 -0.00975000 0.00400000
v -0.01688750 -0.00975000 0.04900000
v -0.01378858 -0.01378858 0.00400000
v -0.01378858 -0.01378858 0.04900000
v -0.00975000 -0.01688750 0.00400000
v -0.00975000 -0.01688750 0.04900000
v -0.00504697 -0.01883555 0.00400000
v -0.00504697 -0.01883555 0.04900000
v -0.00000000 -0.01950000 0.00400000
v -0.00000000 -0.01950000 0.04900000
v 0.00504697 -0.01883555 0.00400000
v 0.00504697 -0.01883555 0.04900000
v 0.00975000 -0.01688750 0.00400000
v 0.00975000 -0.01688750 0.04900000
v 0.01378858 -0.01378858 0.00400000
v 0.01378858 -0.01378858 0.04900000
v 0.01688750 -0.00975000 0.00400000
v 0.01688750 -0.00975000 0.04900000
v 0.01883555 -0.00504697 0.00400000
v 0.01883555 -0.00504697 0.04900000
v 0.00000000 0.00000000 0.06000000
v 0.00000000 0.00000000 0.07500000
v -0.30000000 0.00000000 0.07500000
v -0.30000000 0.00000000 0.06000000
v 0.00000000 0.00750000 0.07299038
v -0.30000000 0.00750000 0.07299038
v 0.00000000 0.01299038 0.06750000
v -0.30000000 0.01299038 0.06750000
v 0.00000000 0.01500000 0.06000000
v -0.30000000 0.01500000 0.06000000
v 0.00000000 0.01299038 0.05250000
v -0.30000000 0.01299038 0.05250000
v 0.00000000 0.00750000 0.04700962
v -0.30000000 0.00750000 0.04700962
v 0.00000000 0.00000000 0.04500000
v -0.30000000 0.00000000 0.04500000
v 0.00000000 -0.00750000 0.04700962
v -0.30000000 -0.00750000 0.04700962
v 0.00000000 -0.01299038 0.05250000
v -0.30000000 -0.01299038 0.05250000
v 0.00000000 -0.01500000 0.06000000
v -0.30000000 -0.01500000 0.06000000
v 0.00000000 -0.01299038 0.06750000
v -0.30000000 -0.01299038 0.06750000
v 0.00000000 -0.00750000 0.07299038
v -0.30000000 -0.00750000 0.07299038
v -0.00788597 0.01275976 0.06000000
v 0.00788597 0.01275976 0.06000000
v -0.00788597 -0.01275976 0.06000000
v 0.00788597 -0.01275976 0.06000000
v 0.00000000 -0.00788597 0.07275976
v 0.00000000 0.00788597 0.07275976
v 0.00000000 -0.00788597 0.04724024
v 0.00000000 0.00788597 0.04724024
v 0.01275976 0.00000000 0.05211403
v 0.01275976 0.00000000 0.06788597
v -0.01275976 0.00000000 0.05211403
v -0.01275976 0.00000000 0.06788597
v -0.00463525 -0.01213525 0.06750000
v 0.00463525 -0.01213525 0.06750000
v -0.00463525 0.01213525 0.06750000
v 0.00463525 0.01213525 0.06750000
v -0.00463525 -0.01213525 0.05250000
v 0.00463525 -0.01213525 0.05250000
v -0.00463525 0.01213525 0.05250000
v 0.00463525 0.01213525 0.05250000
v 0.01213525 0.00750000 0.05536475
v 0.01213525 -0.00750000 0.05536475
v 0.00750000 -0.00463525 0.04786475
v 0.00750000 0.00463525 0.04786475
v 0.01213525 0.00750000 0.06463525
v 0.01213525 -0.00750000 0.06463525
v 0.00750000 -0.00463525 0.07213525
v 0.00750000 0.00463525 0.07213525
v 0.01500000 0.00000000 0.06000000
v -0.01213525 0.00750000 0.05536475
v -0.01213525 -0.00750000 0.05536475
v -0.00750000 -0.00463525 0.04786475
v -0.00750000 0.00463525 0.04786475
v -0.01213525 0.00750000 0.06463525
v -0.01213525 -0.00750000 0.06463525
v -0.00750000 -0.00463525 0.07213525
v -0.00750000 0.00463525 0.07213525
v -0.01500000 0.00000000 0.06000000
v -0.30788597 0.01275976 0.06000000
v -0.29211403 0.01275976 0.06000000
v -0.30788597 -0.01275976 0.06000000
v -0.29211403 -0.01275976 0.06000000
v -0.30000000 -0.00788597 0.07275976
v -0.30000000 0.00788597 0.07275976
v -0.30000000 -0.00788597 0.04724024
v -0.30000000 0.00788597 0.04724024
v -0.28724024 0.00000000 0.05211403
v -0.28724024 0.00000000 0.06788597
v -0.31275976 0.00000000 0.05211403
v -0.31275976 0.00000000 0.06788597
v -0.30463525 -0.01213525 0.06750000
v -0.29536475 -0.01213525 0.06750000
v -0.30463525 0.01213525 0.06750000
v -0.29536475 0.01213525 0.06750000
v -0.30463525 -0.01213525 0.05250000
v -0.29536475 -0.01213525 0.05250000
v -0.30463525 0.01213525 0.05250000
v -0.29536475 0.01213525 0.05250000
v -0.28786475 0.00750000 0.05536475
v -0.28786475 -0.00750000 0.05536475
v -0.29250000 -0.00463525 0.04786475
v -0.29250000 0.00463525 0.04786475
v -0.28786475 0.00750000 0.06463525
v -0.28786475 -0.00750000 0.06463525
v -0.29250000 -0.00463525 0.07213525
v -0.29250000 0.00463525 0.07213525
v -0.28500000 0.00000000 0.06000000
v -0.31213525 0.00750000 0.05536475
v -0.31213525 -0.00750000 0.05536475
v -0.30750000 -0.00463525 0.04786475
v -0.30750000 0.00463525 0.04786475
v -0.31213525 0.00750000 0.06463525
v -0.31213525 -0.00750000 0.06463525
v -0.30750000 -0.00463525 0.07213525
v -0.30750000 0.00463525 0.07213525
v -0.31500000 0.00000000 0.06000000
v -0.31261755 0.02041562 0.06000000
v -0.28738245 0.02041562 0.06000000
v -0.31261755 -0.02041562 0.06000000
v -0.28738245 -0.02041562 0.06000000
v -0.30000000 -0.01261755 0.08041562
v -0.30000000 0.01261755 0.08041562
v -0.30000000 -0.01261755 0.03958438
v -0.30000000 0.01261755 0.03958438
v -0.27958438 0.00000000 0.04738245
v -0.27958438 0.00000000 0.07261755
v -0.32041562 0.00000000 0.04738245
v -0.32041562 0.00000000 0.07261755
v -0.30000000 0.02400000 0.06000000
v -0.30000000 -0.02400000 0.06000000
v -0.30741641 -0.01941641 0.07200000
v -0.29258359 -0.01941641 0.07200000
v -0.30741641 0.01941641 0.07200000
v -0.29258359 0.01941641 0.07200000
v -0.30000000 0.00000000 0.08400000
v -0.30741641 -0.01941641 0.04800000
v -0.29258359 -0.01941641 0.04800000
v -0.30741641 0.01941641 0.04800000
v -0.29258359 0.01941641 0.04800000
v -0.30000000 0.00000000 0.03600000
v -0.28058359 0.01200000 0.05258359
v -0.28058359 -0.01200000 0.05258359
v -0.28800000 -0.00741641 0.04058359
v -0.28800000 0.00741641 0.04058359
v -0.28058359 0.01200000 0.06741641
v -0.28058359 -0.01200000 0.06741641
v -0.28800000 -0.00741641 0.07941641
v -0.28800000 0.00741641 0.07941641
v -0.27600000 0.00000000 0.06000000
v -0.31941641 0.01200000 0.05258359
v -0.31941641 -0.01200000 0.05258359
v -0.31200000 -0.00741641 0.04058359
v -0.31200000 0.00741641 0.04058359
v -0.31941641 0.01200000 0.06741641
v -0.31941641 -0.01200000 0.06741641
v -0.31200000 -0.00741641 0.07941641
v -0.31200000 0.00741641 0.07941641
v -0.32400000 0.00000000 0.06000000
v -0.30655840 0.02308652 0.06000000
v -0.29344160 0.02308652 0.06000000
v -0.30655840 -0.02308652 0.06000000
v -0.29344160 -0.02308652 0.06000000
v -0.31041333 -0.02070404 0.06623741
v -0.30385493 -0.01665073 0.07684911
v -0.30389904 -0.02282536 0.06630877
v -0.28958667 -0.02070404 0.06623741
v -0.29614507 -0.01665073 0.07684911
v -0.29610096 -0.02282536 0.06630877
v -0.30000000 -0.02041562 0.07261755
v -0.31041333 0.02070404 0.06623741
v -0.30385493 0.01665073 0.07684911
v -0.30389904 0.02282536 0.06630877
v -0.28958667 0.02070404 0.06623741
v -0.29614507 0.01665073 0.07684911
v -0.29610096 0.02282536 0.06630877
v -0.30000000 0.02041562 0.07261755
v -0.30000000 -0.00655840 0.08308652
v -0.30000000 0.00655840 0.08308652
v -0.31041333 -0.02070404 0.05376259
v -0.30385493 -0.01665073 0.04315089
v -0.30389904 -0.02282536 0.05369123
v -0.28958667 -0.02070404 0.05376259
v -0.29614507 -0.01665073 0.04315089
v -0.29610096 -0.02282536 0.05369123
v -0.30000000 -0.02041562 0.04738245
v -0.31041333 0.02070404 0.05376259
v -0.30385493 0.01665073 0.04315089
v -0.30389904 0.02282536 0.05369123
v -0.28958667 0.02070404 0.05376259
v -0.29614507 0.01665073 0.04315089
v -0.29610096 0.02282536 0.05369123
v -0.30000000 0.02041562 0.04738245
v -0.30000000 -0.00655840 0.03691348
v -0.30000000 0.00655840 0.03691348
v -0.28334927 0.01684911 0.05614507
v -0.27929596 0.00623741 0.04958667
v -0.28589315 0.01651658 0.04979219
v -0.28334927 -0.01684911 0.05614507
v -0.27929596 -0.00623741 0.04958667
v -0.28589315 -0.01651658 0.04979219
v -0.29376259 -0.01041333 0.03929596
v -0.28315089 -0.00385493 0.04334927
v -0.28979219 -0.01410685 0.04348342
v -0.29369123 -0.00389904 0.03717464
v -0.28348342 -0.01020781 0.04589315
v -0.29376259 0.01041333 0.03929596
v -0.28315089 0.00385493 0.04334927
v -0.28979219 0.01410685 0.04348342
v -0.29369123 0.00389904 0.03717464
v -0.28348342 0.01020781 0.04589315
v -0.28738245 0.00000000 0.03958438
v -0.28334927 0.01684911 0.06385493
v -0.27929596 0.00623741 0.07041333
v -0.28589315 0.01651658 0.07020781
v -0.27958438 0.01261755 0.06000000
v -0.28334927 -0.01684911 0.06385493
v -0.27929596 -0.00623741 0.07041333
v -0.28589315 -0.01651658 0.07020781
v -0.27958438 -0.01261755 0.06000000
v -0.29376259 -0.01041333 0.08070404
v -0.28315089 -0.00385493 0.07665073
v -0.28979219 -0.01410685 0.07651658
v -0.29369123 -0.00389904 0.08282536
v -0.28348342 -0.01020781 0.07410685
v -0.29376259 0.01041333 0.08070404
v -0.28315089 0.00385493 0.07665073
v -0.28979219 0.01410685 0.07651658
v -0.29369123 0.00389904 0.08282536
v -0.28348342 0.01020781 0.07410685
v -0.28738245 0.00000000 0.08041562
v -0.27691348 0.00000000 0.05344160
v -0.27691348 0.00000000 0.06655840
v -0.27717464 0.00630877 0.05610096
v -0.27717464 -0.00630877 0.05610096
v -0.27717464 0.00630877 0.06389904
v -0.27717464 -0.00630877 0.06389904
v -0.31665073 0.01684911 0.05614507
v -0.32070404 0.00623741 0.04958667
v -0.31410685 0.01651658 0.04979219
v -0.31665073 -0.01684911 0.05614507
v -0.32070404 -0.00623741 0.04958667
v -0.31410685 -0.01651658 0.04979219
v -0.30623741 -0.01041333 0.03929596
v -0.31684911 -0.00385493 0.04334927
v -0.31020781 -0.01410685 0.04348342
v -0.30630877 -0.00389904 0.03717464
v -0.31651658 -0.01020781 0.04589315
v -0.30623741 0.01041333 0.03929596
v -0.31684911 0.00385493 0.04334927
v -0.31020781 0.01410685 0.04348342
v -0.30630877 0.00389904 0.03717464
v -0.31651658 0.01020781 0.04589315
v -0.31261755 0.00000000 0.03958438
v -0.31665073 0.01684911 0.06385493
v -0.32070404 0.00623741 0.07041333
v -0.31410685 0.01651658 0.07020781
v -0.32041562 0.01261755 0.06000000
v -0.31665073 -0.01684911 0.06385493
v -0.32070404 -0.00623741 0.07041333
v -0.31410685 -0.01651658 0.07020781
v -0.32041562 -0.01261755 0.06000000
v -0.30623741 -0.01041333 0.08070404
v -0.31684911 -0.00385493 0.07665073
v -0.31020781 -0.01410685 0.07651658
v -0.30630877 -0.00389904 0.08282536
v -0.31651658 -0.01020781 0.07410685
v -0.30623741 0.01041333 0.08070404
v -0.31684911 0.00385493 0.07665073
v -0.31020781 0.01410685 0.07651658
v -0.30630877 0.00389904 0.08282536
v -0.31651658 0.01020781 0.07410685
v -0.31261755 0.00000000 0.08041562
v -0.32308652 0.00000000 0.05344160
v -0.32308652 0.00000000 0.06655840
v -0.32282536 0.00630877 0.05610096
v -0.32282536 -0.00630877 0.05610096
v -0.32282536 0.00630877 0.06389904
v -0.32282536 -0.00630877 0.06389904
f 2 1 5
f 2 5 3
f 3 5 6
f 3 6 4
f 5 1 7
f 5 7 6
f 6 7 8
f 6 8 4
f 7 1 9
f 7 9 8
f 8 9 10
f 8 10 4
f 9 1 11
f 9 11 10
f 10 11 12
f 10 12 4
f 11 1 13
f 11 13 12
f 12 13 14
f 12 14 4
f 13 1 15
f 13 15 14
f 14 15 16
f 14 16 4
f 15 1 17
f 15 17 16
f 16 17 18
f 16 18 4
f 17 1 19
f 17 19 18
f 18 19 20
f 18 20 4
f 19 1 21
f 19 21 20
f 20 21 22
f 20 22 4
f 21 1 23
f 21 23 22
f 22 23 24
f 22 24 4
f 23 1 25
f 23 25 24
f 24 25 26
f 24 26 4
f 25 1 27
f 25 27 26
f 26 27 28
f 26 28 4
f 27 1 29
f 27 29 28
f 28 29 30
f 28 30 4
f 29 1 31
f 29 31 30
f 30 31 32
f 30 32 4
f 31 1 33
f 31 33 32
f 32 33 34
f 32 34 4
f 33 1 35
f 33 35 34
f 34 35 36
f 34 36 4
f 35 1 37
f 35 37 36
f 36 37 38
f 36 38 4
f 37 1 39
f 37 39 38
f 38 39 40
f 38 40 4
f 39 1 41
f 39 41 40
f 40 41 42
f 40 42 4
f 41 1 43
f 41 43 42
f 42 43 44
f 42 44 4
f 43 1 45
f 43 45 44
f 44 45 46
f 44 46 4
f 45 1 47
f 45 47 46
f 46 47 48
f 46 48 4
f 47 1 49
f 47 49 48
f 48 49 50
f 48 50 4
f 49 1 51
f 49 51 50
f 50 51 52
f 50 52 4
f 51 1 53
f 51 53 52
f 52 53 54
f 52 54 4
f 53 1 55
f 53 55 54
f 54 55 56
f 54 56 4
f 55 1 57
f 55 57 56
f 56 57 58
f 56 58 4
f 57 1 59
f 57 59 58
f 58 59 60
f 58 60 4
f 59 1 61
f 59 61 60
f 60 61 62
f 60 62 4
f 61 1 63
f 61 63 62
f 62 63 64
f 62 64 4
f 63 1 65
f 63 65 64
f 64 65 66
f 64 66 4
f 65 1 2
f 65 2 66
f 66 2 3
f 66 3 4
f 68 67 71
f 68 71 69
f 69 71 72
f 69 72 70
f 71 67 73
f 71 73 72
f 72 73 74
f 72 74 70
f 73 67 75
f 73 75 74
f 74 75 76
f 74 76 70
f 75 67 77
f 75 77 76
f 76 77 78
f 76 78 70
f 77 67 79
f 77 79 78
f 78 79 80
f 78 80 70
f 79 67 81
f 79 81 80
f 80 81 82
f 80 82 70
f 81 67 83
f 81 83 82
f 82 83 84
f 82 84 70
f 83 67 85
f 83 85 84
f 84 85 86
f 84 86 70
f 85 67 87
f 85 87 86
f 86 87 88
f 86 88 70
f 87 67 89
f 87 89 88
f 88 89 90
f 88 90 70
f 89 67 91
f 89 91 90
f 90 91 92
f 90 92 70
f 91 67 93
f 91 93 92
f 92 93 94
f 92 94 70
f 93 67 95
f 93 95 94
f 94 95 96
f 94 96 70
f 95 67 97
f 95 97 96
f 96 97 98
f 96 98 70
f 97 67 99
f 97 99 98
f 98 99 100
f 98 100 70
f 99 67 101
f 99 101 100
f 100 101 102
f 100 102 70
f 101 67 103
f 101 103 102
f 102 103 104
f 102 104 70
f 103 67 105
f 103 105 104
f 104 105 106
f 104 106 70
f 105 67 107
f 105 107 106
f 106 107 108
f 106 108 70
f 107 67 109
f 107 109 108
f 108 109 110
f 108 110 70
f 109 67 111
f 109 111 110
f 110 111 112
f 110 112 70
f 111 67 113
f 111 113 112
f 112 113 114
f 112 114 70
f 113 67 115
f 113 115 114
f 114 115 116
f 114 116 70
f 115 67 68
f 115 68 116
f 116 68 69
f 116 69 70
f 118 117 121
f 118 121 119
f 119 121 122
f 119 122 120
f 121 117 123
f 121 123 122
f 122 123 124
f 122 124 120
f 123 117 125
f 123 125 124
f 124 125 126
f 124 126 120
f 125 117 127
f 125 127 126
f 126 127 128
f 126 128 120
f 127 117 129
f 127 129 128
f 128 129 130
f 128 130 120
f 129 117 131
f 129 131 130
f 130 131 132
f 130 132 120
f 131 117 133
f 131 133 132
f 132 133 134
f 132 134 120
f 133 117 135
f 133 135 134
f 134 135 136
f 134 136 120
f 135 117 137
f 135 137 136
f 136 137 138
f 136 138 120
f 137 117 139
f 137 139 138
f 138 139 140
f 138 140 120
f 139 117 141
f 139 141 140
f 140 141 142
f 140 142 120
f 141 117 118
f 141 118 142
f 142 118 119
f 142 119 120
f 143 176 157
f 176 154 179
f 157 179 148
f 176 179 157
f 143 157 125
f 157 148 158
f 125 158 144
f 157 158 125
f 143 125 161
f 125 144 162
f 161 162 150
f 125 162 161
f 143 161 172
f 161 150 175
f 172 175 153
f 161 175 172
f 143 172 176
f 172 153 180
f 176 180 154
f 172 180 176
f 144 158 167
f 158 148 170
f 167 170 152
f 158 170 167
f 148 179 118
f 179 154 178
f 118 178 147
f 179 178 118
f 154 180 177
f 180 153 173
f 177 173 145
f 180 173 177
f 153 175 174
f 175 150 131
f 174 131 149
f 175 131 174
f 150 162 166
f 162 144 163
f 166 163 151
f 162 163 166
f 146 168 156
f 168 152 169
f 156 169 147
f 168 169 156
f 146 156 137
f 156 147 155
f 137 155 145
f 156 155 137
f 146 137 160
f 137 145 159
f 160 159 149
f 137 159 160
f 146 160 164
f 160 149 165
f 164 165 151
f 160 165 164
f 146 164 168
f 164 151 171
f 168 171 152
f 164 171 168
f 147 169 118
f 169 152 170
f 118 170 148
f 169 170 118
f 145 155 177
f 155 147 178
f 177 178 154
f 155 178 177
f 149 159 174
f 159 145 173
f 174 173 153
f 159 173 174
f 151 165 166
f 165 149 131
f 166 131 150
f 165 131 166
f 152 171 167
f 171 151 163
f 167 163 144
f 171 163 167
f 181 214 195
f 214 192 217
f 195 217 186
f 214 217 195
f 181 195 126
f 195 186 196
f 126 196 182
f 195 196 126
f 181 126 199
f 126 182 200
f 199 200 188
f 126 200 199
f 181 199 210
f 199 188 213
f 210 213 191
f 199 213 210
f 181 210 214
f 210 191 218
f 214 218 192
f 210 218 214
f 182 196 205
f 196 186 208
f 205 208 190
f 196 208 205
f 186 217 119
f 217 192 216
f 119 216 185
f 217 216 119
f 192 218 215
f 218 191 211
f 215 211 183
f 218 211 215
f 191 213 212
f 213 188 132
f 212 132 187
f 213 132 212
f 188 200 204
f 200 182 201
f 204 201 189
f 200 201 204
f 184 206 194
f 206 190 207
f 194 207 185
f 206 207 194
f 184 194 138
f 194 185 193
f 138 193 183
f 194 193 138
f 184 138 198
f 138 183 197
f 198 197 187
f 138 197 198
f 184 198 202
f 198 187 203
f 202 203 189
f 198 203 202
f 184 202 206
f 202 189 209
f 206 209 190
f 202 209 206
f 185 207 119
f 207 190 208
f 119 208 186
f 207 208 119
f 183 193 215
f 193 185 216
f 215 216 192
f 193 216 215
f 187 197 212
f 197 183 211
f 212 211 191
f 197 211 212
f 189 203 204
f 203 187 132
f 204 132 188
f 203 132 204
f 190 209 205
f 209 189 201
f 205 201 182
f 209 201 205
f 219 356 272
f 356 256 358
f 272 358 235
f 356 358 272
f 256 357 373
f 357 230 370
f 373 370 259
f 357 370 373
f 235 371 273
f 371 259 369
f 273 369 224
f 371 369 273
f 256 373 358
f 373 259 371
f 358 371 235
f 373 371 358
f 219 272 261
f 272 235 274
f 261 274 231
f 272 274 261
f 235 273 278
f 273 224 276
f 278 276 236
f 273 276 278
f 231 277 262
f 277 236 275
f 262 275 220
f 277 275 262
f 235 278 274
f 278 236 277
f 274 277 231
f 278 277 274
f 219 261 288
f 261 231 290
f 288 290 240
f 261 290 288
f 231 262 293
f 262 220 291
f 293 291 241
f 262 291 293
f 240 294 289
f 294 241 292
f 289 292 226
f 294 292 289
f 231 293 290
f 293 241 294
f 290 294 240
f 293 294 290
f 219 288 339
f 288 240 341
f 339 341 252
f 288 341 339
f 240 289 352
f 289 226 350
f 352 350 255
f 289 350 352
f 252 354 340
f 354 255 351
f 340 351 229
f 354 351 340
f 240 352 341
f 352 255 354
f 341 354 252
f 352 354 341
f 219 339 356
f 339 252 359
f 356 359 256
f 339 359 356
f 252 340 377
f 340 229 375
f 377 375 260
f 340 375 377
f 256 379 357
f 379 260 376
f 357 376 230
f 379 376 357
f 252 377 359
f 377 260 379
f 359 379 256
f 377 379 359
f 220 275 314
f 275 236 316
f 314 316 247
f 275 316 314
f 236 276 329
f 276 224 327
f 329 327 250
f 276 327 329
f 247 331 315
f 331 250 328
f 315 328 228
f 331 328 315
f 236 329 316
f 329 250 331
f 316 331 247
f 329 331 316
f 224 369 280
f 369 259 372
f 280 372 237
f 369 372 280
f 259 370 374
f 370 230 365
f 374 365 258
f 370 365 374
f 237 367 279
f 367 258 364
f 279 364 223
f 367 364 279
f 259 374 372
f 374 258 367
f 372 367 237
f 374 367 372
f 230 376 361
f 376 260 380
f 361 380 257
f 376 380 361
f 260 375 378
f 375 229 343
f 378 343 253
f 375 343 378
f 257 363 360
f 363 253 342
f 360 342 221
f 363 342 360
f 260 378 380
f 378 253 363
f 380 363 257
f 378 363 380
f 229 351 346
f 351 255 355
f 346 355 254
f 351 355 346
f 255 350 353
f 350 226 296
f 353 296 242
f 350 296 353
f 254 348 345
f 348 242 295
f 345 295 225
f 348 295 345
f 255 353 355
f 353 242 348
f 355 348 254
f 353 348 355
f 226 292 308
f 292 241 310
f 308 310 246
f 292 310 308
f 241 291 299
f 291 220 297
f 299 297 243
f 291 297 299
f 246 312 309
f 312 243 298
f 309 298 227
f 312 298 309
f 241 299 310
f 299 243 312
f 310 312 246
f 299 312 310
f 222 318 268
f 318 248 320
f 268 320 234
f 318 320 268
f 248 319 326
f 319 228 323
f 326 323 249
f 319 323 326
f 234 324 269
f 324 249 322
f 269 322 223
f 324 322 269
f 248 326 320
f 326 249 324
f 320 324 234
f 326 324 320
f 222 268 264
f 268 234 270
f 264 270 232
f 268 270 264
f 234 269 271
f 269 223 266
f 271 266 233
f 269 266 271
f 232 267 263
f 267 233 265
f 263 265 221
f 267 265 263
f 234 271 270
f 271 233 267
f 270 267 232
f 271 267 270
f 222 264 284
f 264 232 286
f 284 286 239
f 264 286 284
f 232 263 283
f 263 221 281
f 283 281 238
f 263 281 283
f 239 287 285
f 287 238 282
f 285 282 225
f 287 282 285
f 232 283 286
f 283 238 287
f 286 287 239
f 283 287 286
f 222 284 300
f 284 239 302
f 300 302 244
f 284 302 300
f 239 285 305
f 285 225 303
f 305 303 245
f 285 303 305
f 244 307 301
f 307 245 304
f 301 304 227
f 307 304 301
f 239 305 302
f 305 245 307
f 302 307 244
f 305 307 302
f 222 300 318
f 300 244 321
f 318 321 248
f 300 321 318
f 244 301 336
f 301 227 333
f 336 333 251
f 301 333 336
f 248 338 319
f 338 251 334
f 319 334 228
f 338 334 319
f 244 336 321
f 336 251 338
f 321 338 248
f 336 338 321
f 223 322 279
f 322 249 325
f 279 325 237
f 322 325 279
f 249 323 332
f 323 228 328
f 332 328 250
f 323 328 332
f 237 330 280
f 330 250 327
f 280 327 224
f 330 327 280
f 249 332 325
f 332 250 330
f 325 330 237
f 332 330 325
f 221 265 360
f 265 233 362
f 360 362 257
f 265 362 360
f 233 266 366
f 266 223 364
f 366 364 258
f 266 364 366
f 257 368 361
f 368 258 365
f 361 365 230
f 368 365 361
f 233 366 362
f 366 258 368
f 362 368 257
f 366 368 362
f 225 282 345
f 282 238 347
f 345 347 254
f 282 347 345
f 238 281 344
f 281 221 342
f 344 342 253
f 281 342 344
f 254 349 346
f 349 253 343
f 346 343 229
f 349 343 346
f 238 344 347
f 344 253 349
f 347 349 254
f 344 349 347
f 227 304 309
f 304 245 313
f 309 313 246
f 304 313 309
f 245 303 306
f 303 225 295
f 306 295 242
f 303 295 306
f 246 311 308
f 311 242 296
f 308 296 226
f 311 296 308
f 245 306 313
f 306 242 311
f 313 311 246
f 306 311 313
f 228 334 315
f 334 251 337
f 315 337 247
f 334 337 315
f 251 333 335
f 333 227 298
f 335 298 243
f 333 298 335
f 247 317 314
f 317 243 297
f 314 297 220
f 317 297 314
f 251 335 337
f 335 243 317
f 337 317 247
f 335 317 337

