# https://github.com/mikedh/trimesh
v 0.19000000 0.00000000 0.08000000
v 0.18809017 0.00000000 0.08587785
v 0.18309017 0.00000000 0.08951057
v 0.17690983 0.00000000 0.08951057
v 0.17190983 0.00000000 0.08587785
v 0.17000000 0.00000000 0.08000000
v 0.17190983 0.00000000 0.07412215
v 0.17690983 0.00000000 0.07048943
v 0.18309017 0.00000000 0.07048943
v 0.18809017 0.00000000 0.07412215
v 0.18766078 0.02972255 0.08000000
v 0.18577447 0.02942379 0.08587785
v 0.18083603 0.02864161 0.08951057
v 0.17473178 0.02767479 0.08951057
v 0.16979333 0.02689262 0.08587785
v 0.16790702 0.02659386 0.08000000
v 0.16979333 0.02689262 0.07412215
v 0.17473178 0.02767479 0.07048943
v 0.18083603 0.02864161 0.07048943
v 0.18577447 0.02942379 0.07412215
v 0.18070074 0.05871323 0.08000000
v 0.17888438 0.05812306 0.08587785
v 0.17412910 0.05657797 0.08951057
v 0.16825125 0.05466814 0.08951057
v 0.16349596 0.05312306 0.08587785
v 0.16167961 0.05253289 0.08000000
v 0.16349596 0.05312306 0.07412215
v 0.16825125 0.05466814 0.07048943
v 0.17412910 0.05657797 0.07048943
v 0.17888438 0.05812306 0.07412215
v 0.16929124 0.08625819 0.08000000
v 0.16758957 0.08539115 0.08587785
v 0.16313454 0.08312120 0.08951057
v 0.15762781 0.08031538 0.08951057
v 0.15317278 0.07804543 0.08587785
v 0.15147111 0.07717838 0.08000000
v 0.15317278 0.07804543 0.07412215
v 0.15762781 0.08031538 0.07048943
v 0.16313454 0.08312120 0.07048943
v 0.16758957 0.08539115 0.07412215
v 0.15371323 0.11167920 0.08000000
v 0.15216814 0.11055663 0.08587785
v 0.14812306 0.10761770 0.08951057
v 0.14312306 0.10398499 0.08951057
v 0.13907797 0.10104606 0.08587785
v 0.13753289 0.09992349 0.08000000
v 0.13907797 0.10104606 0.07412215
v 0.14312306 0.10398499 0.07048943
v 0.14812306 0.10761770 0.07048943
v 0.15216814 0.11055663 0.07412215
v 0.13435029 0.13435029 0.08000000
v 0.13299983 0.13299983 0.08587785
v 0.12946430 0.12946430 0.08951057
v 0.12509414 0.12509414 0.08951057
v 0.12155861 0.12155861 0.08587785
v 0.12020815 0.12020815 0.08000000
v 0.12155861 0.12155861 0.07412215
v 0.12509414 0.12509414 0.07048943
v 0.12946430 0.12946430 0.07048943
v 0.13299983 0.13299983 0.07412215
v 0.11167920 0.15371323 0.08000000
v 0.11055663 0.15216814 0.08587785
v 0.10761770 0.14812306 0.08951057
v 0.10398499 0.14312306 0.08951057
v 0.10104606 0.13907797 0.08587785
v 0.09992349 0.13753289 0.08000000
v 0.10104606 0.13907797 0.07412215
v 0.10398499 0.14312306 0.07048943
v 0.10761770 0.14812306 0.07048943
v 0.11055663 0.15216814 0.07412215
v 0.08625819 0.16929124 0.08000000
v 0.08539115 0.16758957 0.08587785
v 0.08312120 0.16313454 0.08951057
v 0.08031538 0.15762781 0.08951057
v 0.07804543 0.15317278 0.08587785
v 0.07717838 0.15147111 0.08000000
v 0.07804543 0.15317278 0.07412215
v 0.08031538 0.15762781 0.07048943
v 0.08312120 0.16313454 0.07048943
v 0.08539115 0.16758957 0.07412215
v 0.05871323 0.18070074 0.08000000
v 0.05812306 0.17888438 0.08587785
v 0.05657797 0.17412910 0.08951057
v 0.05466814 0.16825125 0.08951057
v 0.05312306 0.16349596 0.08587785
v 0.05253289 0.16167961 0.08000000
v 0.05312306 0.16349596 0.07412215
v 0.05466814 0.16825125 0.07048943
v 0.05657797 0.17412910 0.07048943
v 0.05812306 0.17888438 0.07412215
v 0.02972255 0.18766078 0.08000000
v 0.02942379 0.18577447 0.08587785
v 0.02864161 0.18083603 0.08951057
v 0.02767479 0.17473178 0.08951057
v 0.02689262 0.16979333 0.08587785
v 0.02659386 0.16790702 0.08000000
v 0.02689262 0.16979333 0.07412215
v 0.02767479 0.17473178 0.07048943
v 0.02864161 0.18083603 0.07048943
v 0.02942379 0.18577447 0.07412215
v 0.00000000 0.19000000 0.08000000
v 0.00000000 0.18809017 0.08587785
v 0.00000000 0.18309017 0.08951057
v 0.00000000 0.17690983 0.08951057
v 0.00000000 0.17190983 0.08587785
v 0.00000000 0.17000000 0.08000000
v 0.00000000 0.17190983 0.07412215
v 0.00000000 0.17690983 0.07048943
v 0.00000000 0.18309017 0.07048943
v 0.00000000 0.18809017 0.07412215
v -0.02972255 0.18766078 0.08000000
v -0.02942379 0.18577447 0.08587785
v -0.02864161 0.18083603 0.08951057
v -0.02767479 0.17473178 0.08951057
v -0.02689262 0.16979333 0.08587785
v -0.02659386 0.16790702 0.08000000
v -0.02689262 0.16979333 0.07412215
v -0.02767479 0.17473178 0.07048943
v -0.02864161 0.18083603 0.07048943
v -0.02942379 0.18577447 0.07412215
v -0.05871323 0.18070074 0.08000000
v -0.05812306 0.17888438 0.08587785
v -0.05657797 0.17412910 0.08951057
v -0.05466814 0.16825125 0.08951057
v -0.05312306 0.16349596 0.08587785
v -0.05253289 0.16167961 0.08000000
v -0.05312306 0.16349596 0.07412215
v -0.05466814 0.16825125 0.07048943
v -0.05657797 0.17412910 0.07048943
v -0.05812306 0.17888438 0.07412215
v -0.08625819 0.16929124 0.08000000
v -0.08539115 0.16758957 0.08587785
v -0.08312120 0.16313454 0.08951057
v -0.08031538 0.15762781 0.08951057
v -0.07804543 0.15317278 0.08587785
v -0.07717838 0.15147111 0.08000000
v -0.07804543 0.15317278 0.07412215
v -0.08031538 0.15762781 0.07048943
v -0.08312120 0.16313454 0.07048943
v -0.08539115 0.16758957 0.07412215
v -0.11167920 0.15371323 0.08000000
v -0.11055663 0.15216814 0.08587785
v -0.10761770 0.14812306 0.08951057
v -0.10398499 0.14312306 0.08951057
v -0.10104606 0.13907797 0.08587785
v -0.09992349 0.13753289 0.08000000
v -0.10104606 0.13907797 0.07412215
v -0.10398499 0.14312306 0.07048943
v -0.10761770 0.14812306 0.07048943
v -0.11055663 0.15216814 0.07412215
v -0.13435029 0.13435029 0.08000000
v -0.13299983 0.13299983 0.08587785
v -0.12946430 0.12946430 0.08951057
v -0.12509414 0.12509414 0.08951057
v -0.12155861 0.12155861 0.08587785
v -0.12020815 0.12020815 0.08000000
v -0.12155861 0.12155861 0.07412215
v -0.12509414 0.12509414 0.07048943
v -0.12946430 0.12946430 0.07048943
v -0.13299983 0.13299983 0.07412215
v -0.15371323 0.11167920 0.08000000
v -0.15216814 0.11055663 0.08587785
v -0.14812306 0.10761770 0.08951057
v -0.14312306 0.10398499 0.08951057
v -0.13907797 0.10104606 0.08587785
v -0.13753289 0.09992349 0.08000000
v -0.13907797 0.10104606 0.07412215
v -0.14312306 0.10398499 0.07048943
v -0.14812306 0.10761770 0.07048943
v -0.15216814 0.11055663 0.07412215
v -0.16929124 0.08625819 0.08000000
v -0.16758957 0.08539115 0.08587785
v -0.16313454 0.08312120 0.08951057
v -0.15762781 0.08031538 0.08951057
v -0.15317278 0.07804543 0.08587785
v -0.15147111 0.07717838 0.08000000
v -0.15317278 0.07804543 0.07412215
v -0.15762781 0.08031538 0.07048943
v -0.16313454 0.08312120 0.07048943
v -0.16758957 0.08539115 0.07412215
v -0.18070074 0.05871323 0.08000000
v -0.17888438 0.05812306 0.08587785
v -0.17412910 0.05657797 0.08951057
v -0.16825125 0.05466814 0.08951057
v -0.16349596 0.05312306 0.08587785
v -0.16167961 0.05253289 0.08000000
v -0.16349596 0.05312306 0.07412215
v -0.16825125 0.05466814 0.07048943
v -0.17412910 0.05657797 0.07048943
v -0.17888438 0.05812306 0.07412215
v -0.18766078 0.02972255 0.08000000
v -0.18577447 0.02942379 0.08587785
v -0.18083603 0.02864161 0.08951057
v -0.17473178 0.02767479 0.08951057
v -0.16979333 0.02689262 0.08587785
v -0.16790702 0.02659386 0.08000000
v -0.16979333 0.02689262 0.07412215
v -0.17473178 0.02767479 0.07048943
v -0.18083603 0.02864161 0.07048943
v -0.18577447 0.02942379 0.07412215
v -0.19000000 0.00000000 0.08000000
v -0.18809017 0.00000000 0.08587785
v -0.18309017 0.00000000 0.08951057
v -0.17690983 0.00000000 0.08951057
v -0.17190983 0.00000000 0.08587785
v -0.17000000 0.00000000 0.08000000
v -0.17190983 0.00000000 0.07412215
v -0.17690983 0.00000000 0.07048943
v -0.18309017 0.00000000 0.07048943
v -0.18809017 0.00000000 0.07412215
v -0.18766078 -0.02972255 0.08000000
v -0.18577447 -0.02942379 0.08587785
v -0.18083603 -0.02864161 0.08951057
v -0.17473178 -0.02767479 0.08951057
v -0.16979333 -0.02689262 0.08587785
v -0.16790702 -0.02659386 0.08000000
v -0.16979333 -0.02689262 0.07412215
v -0.17473178 -0.02767479 0.07048943
v -0.18083603 -0.02864161 0.07048943
v -0.18577447 -0.02942379 0.07412215
v -0.18070074 -0.05871323 0.08000000
v -0.17888438 -0.05812306 0.08587785
v -0.17412910 -0.05657797 0.08951057
v -0.16825125 -0.05466814 0.08951057
v -0.16349596 -0.05312306 0.08587785
v -0.16167961 -0.05253289 0.08000000
v -0.16349596 -0.05312306 0.07412215
v -0.16825125 -0.05466814 0.07048943
v -0.17412910 -0.05657797 0.07048943
v -0.17888438 -0.05812306 0.07412215
v -0.16929124 -0.08625819 0.08000000
v -0.16758957 -0.08539115 0.08587785
v -0.16313454 -0.08312120 0.08951057
v -0.15762781 -0.08031538 0.08951057
v -0.15317278 -0.07804543 0.08587785
v -0.15147111 -0.07717838 0.08000000
v -0.15317278 -0.07804543 0.07412215
v -0.15762781 -0.08031538 0.07048943
v -0.16313454 -0.08312120 0.07048943
v -0.16758957 -0.08539115 0.07412215
v -0.15371323 -0.11167920 0.08000000
v -0.15216814 -0.11055663 0.08587785
v -0.14812306 -0.10761770 0.08951057
v -0.14312306 -0.10398499 0.08951057
v -0.13907797 -0.10104606 0.08587785
v -0.13753289 -0.09992349 0.08000000
v -0.13907797 -0.10104606 0.07412215
v -0.14312306 -0.10398499 0.07048943
v -0.14812306 -0.10761770 0.07048943
v -0.15216814 -0.11055663 0.07412215
v -0.13435029 -0.13435029 0.08000000
v -0.13299983 -0.13299983 0.08587785
v -0.12946430 -0.12946430 0.08951057
v -0.12509414 -0.12509414 0.08951057
v -0.12155861 -0.12155861 0.08587785
v -0.12020815 -0.12020815 0.08000000
v -0.12155861 -0.12155861 0.07412215
v -0.12509414 -0.12509414 0.07048943
v -0.12946430 -0.12946430 0.07048943
v -0.13299983 -0.13299983 0.07412215
v -0.11167920 -0.15371323 0.08000000
v -0.11055663 -0.15216814 0.08587785
v -0.10761770 -0.14812306 0.08951057
v -0.10398499 -0.14312306 0.08951057
v -0.10104606 -0.13907797 0.08587785
v -0.09992349 -0.13753289 0.08000000
v -0.10104606 -0.13907797 0.07412215
v -0.10398499 -0.14312306 0.07048943
v -0.10761770 -0.14812306 0.07048943
v -0.11055663 -0.15216814 0.07412215
v -0.08625819 -0.16929124 0.08000000
v -0.08539115 -0.16758957 0.08587785
v -0.08312120 -0.16313454 0.08951057
v -0.08031538 -0.15762781 0.08951057
v -0.07804543 -0.15317278 0.08587785
v -0.07717838 -0.15147111 0.08000000
v -0.07804543 -0.15317278 0.07412215
v -0.08031538 -0.15762781 0.07048943
v -0.08312120 -0.16313454 0.07048943
v -0.08539115 -0.16758957 0.07412215
v -0.05871323 -0.18070074 0.08000000
v -0.05812306 -0.17888438 0.08587785
v -0.05657797 -0.17412910 0.08951057
v -0.05466814 -0.16825125 0.08951057
v -0.05312306 -0.16349596 0.08587785
v -0.05253289 -0.16167961 0.08000000
v -0.05312306 -0.16349596 0.07412215
v -0.05466814 -0.16825125 0.07048943
v -0.05657797 -0.17412910 0.07048943
v -0.05812306 -0.17888438 0.07412215
v -0.02972255 -0.18766078 0.08000000
v -0.02942379 -0.18577447 0.08587785
v -0.02864161 -0.18083603 0.08951057
v -0.02767479 -0.17473178 0.08951057
v -0.02689262 -0.16979333 0.08587785
v -0.02659386 -0.16790702 0.08000000
v -0.02689262 -0.16979333 0.07412215
v -0.02767479 -0.17473178 0.07048943
v -0.02864161 -0.18083603 0.07048943
v -0.02942379 -0.18577447 0.07412215
v -0.00000000 -0.19000000 0.08000000
v -0.00000000 -0.18809017 0.08587785
v -0.00000000 -0.18309017 0.08951057
v -0.00000000 -0.17690983 0.08951057
v -0.00000000 -0.17190983 0.08587785
v -0.00000000 -0.17000000 0.08000000
v -0.00000000 -0.17190983 0.07412215
v -0.00000000 -0.17690983 0.07048943
v -0.00000000 -0.18309017 0.07048943
v -0.00000000 -0.18809017 0.07412215
v 0.02972255 -0.18766078 0.08000000
v 0.02942379 -0.18577447 0.08587785
v 0.02864161 -0.18083603 0.08951057
v 0.02767479 -0.17473178 0.08951057
v 0.02689262 -0.16979333 0.08587785
v 0.02659386 -0.16790702 0.08000000
v 0.02689262 -0.16979333 0.07412215
v 0.02767479 -0.17473178 0.07048943
v 0.02864161 -0.18083603 0.07048943
v 0.02942379 -0.18577447 0.07412215
v 0.05871323 -0.18070074 0.08000000
v 0.05812306 -0.17888438 0.08587785
v 0.05657797 -0.17412910 0.08951057
v 0.05466814 -0.16825125 0.08951057
v 0.05312306 -0.16349596 0.08587785
v 0.05253289 -0.16167961 0.08000000
v 0.05312306 -0.16349596 0.07412215
v 0.05466814 -0.16825125 0.07048943
v 0.05657797 -0.17412910 0.07048943
v 0.05812306 -0.17888438 0.07412215
v 0.08625819 -0.16929124 0.08000000
v 0.08539115 -0.16758957 0.08587785
v 0.08312120 -0.16313454 0.08951057
v 0.08031538 -0.15762781 0.08951057
v 0.07804543 -0.15317278 0.08587785
v 0.07717838 -0.15147111 0.08000000
v 0.07804543 -0.15317278 0.07412215
v 0.08031538 -0.15762781 0.07048943
v 0.08312120 -0.16313454 0.07048943
v 0.08539115 -0.16758957 0.07412215
v 0.11167920 -0.15371323 0.08000000
v 0.11055663 -0.15216814 0.08587785
v 0.10761770 -0.14812306 0.08951057
v 0.10398499 -0.14312306 0.08951057
v 0.10104606 -0.13907797 0.08587785
v 0.09992349 -0.13753289 0.08000000
v 0.10104606 -0.13907797 0.07412215
v 0.10398499 -0.14312306 0.07048943
v 0.10761770 -0.14812306 0.07048943
v 0.11055663 -0.15216814 0.07412215
v 0.13435029 -0.13435029 0.08000000
v 0.13299983 -0.13299983 0.08587785
v 0.12946430 -0.12946430 0.08951057
v 0.12509414 -0.12509414 0.08951057
v 0.12155861 -0.12155861 0.08587785
v 0.12020815 -0.12020815 0.08000000
v 0.12155861 -0.12155861 0.07412215
v 0.12509414 -0.12509414 0.07048943
v 0.12946430 -0.12946430 0.07048943
v 0.13299983 -0.13299983 0.07412215
v 0.15371323 -0.11167920 0.08000000
v 0.15216814 -0.11055663 0.08587785
v 0.14812306 -0.10761770 0.08951057
v 0.14312306 -0.10398499 0.08951057
v 0.13907797 -0.10104606 0.08587785
v 0.13753289 -0.09992349 0.08000000
v 0.13907797 -0.10104606 0.07412215
v 0.14312306 -0.10398499 0.07048943
v 0.14812306 -0.10761770 0.07048943
v 0.15216814 -0.11055663 0.07412215
v 0.16929124 -0.08625819 0.08000000
v 0.16758957 -0.08539115 0.08587785
v 0.16313454 -0.08312120 0.08951057
v 0.15762781 -0.08031538 0.08951057
v 0.15317278 -0.07804543 0.08587785
v 0.15147111 -0.07717838 0.08000000
v 0.15317278 -0.07804543 0.07412215
v 0.15762781 -0.08031538 0.07048943
v 0.16313454 -0.08312120 0.07048943
v 0.16758957 -0.08539115 0.07412215
v 0.18070074 -0.05871323 0.08000000
v 0.17888438 -0.05812306 0.08587785
v 0.17412910 -0.05657797 0.08951057
v 0.16825125 -0.05466814 0.08951057
v 0.16349596 -0.05312306 0.08587785
v 0.16167961 -0.05253289 0.08000000
v 0.16349596 -0.05312306 0.07412215
v 0.16825125 -0.05466814 0.07048943
v 0.17412910 -0.05657797 0.07048943
v 0.17888438 -0.05812306 0.07412215
v 0.18766078 -0.02972255 0.08000000
v 0.18577447 -0.02942379 0.08587785
v 0.18083603 -0.02864161 0.08951057
v 0.17473178 -0.02767479 0.08951057
v 0.16979333 -0.02689262 0.08587785
v 0.16790702 -0.02659386 0.08000000
v 0.16979333 -0.02689262 0.07412215
v 0.17473178 -0.02767479 0.07048943
v 0.18083603 -0.02864161 0.07048943
v 0.18577447 -0.02942379 0.07412215
v 0.00000000 0.00000000 0.00000000
v 0.03500000 0.00000000 0.00000000
v 0.03500000 0.00000000 0.10000000
v 0.00000000 0.00000000 0.10000000
v 0.03328698 0.01081559 0.00000000
v 0.03328698 0.01081559 0.10000000
v 0.02831559 0.02057248 0.00000000
v 0.02831559 0.02057248 0.10000000
v 0.02057248 0.02831559 0.00000000
v 0.02057248 0.02831559 0.10000000
v 0.01081559 0.03328698 0.00000000
v 0.01081559 0.03328698 0.10000000
v 0.00000000 0.03500000 0.00000000
v 0.00000000 0.03500000 0.10000000
v -0.01081559 0.03328698 0.00000000
v -0.01081559 0.03328698 0.10000000
v -0.02057248 0.02831559 0.00000000
v -0.02057248 0.02831559 0.10000000
v -0.02831559 0.02057248 0.00000000
v -0.02831559 0.02057248 0.10000000
v -0.03328698 0.01081559 0.00000000
v -0.03328698 0.01081559 0.10000000
v -0.03500000 0.00000000 0.00000000
v -0.03500000 0.00000000 0.10000000
v -0.03328698 -0.01081559 0.00000000
v -0.03328698 -0.01081559 0.10000000
v -0.02831559 -0.02057248 0.00000000
v -0.02831559 -0.02057248 0.10000000
v -0.02057248 -0.02831559 0.00000000
v -0.02057248 -0.02831559 0.10000000
v -0.01081559 -0.03328698 0.00000000
v -0.01081559 -0.03328698 0.10000000
v -0.00000000 -0.03500000 0.00000000
v -0.00000000 -0.03500000 0.10000000
v 0.01081559 -0.03328698 0.00000000
v 0.01081559 -0.03328698 0.10000000
v 0.02057248 -0.02831559 0.00000000
v 0.02057248 -0.02831559 0.10000000
v 0.02831559 -0.02057248 0.00000000
v 0.02831559 -0.02057248 0.10000000
v 0.03328698 -0.01081559 0.00000000
v 0.03328698 -0.01081559 0.10000000
v 0.00000000 0.00000000 0.08000000
v 0.00000000 0.00000000 0.07100000
v 0.18000000 0.00000000 0.07100000
v 0.18000000 0.00000000 0.08000000
v 0.00000000 0.00529007 0.07271885
v 0.18000000 0.00529007 0.07271885
v 0.00000000 0.00855951 0.07721885
v 0.18000000 0.00855951 0.07721885
v 0.00000000 0.00855951 0.08278115
v 0.18000000 0.00855951 0.08278115
v 0.00000000 0.00529007 0.08728115
v 0.18000000 0.00529007 0.08728115
v 0.00000000 0.00000000 0.08900000
v 0.18000000 0.00000000 0.08900000
v 0.00000000 -0.00529007 0.08728115
v 0.18000000 -0.00529007 0.08728115
v 0.00000000 -0.00855951 0.08278115
v 0.18000000 -0.00855951 0.08278115
v 0.00000000 -0.00855951 0.07721885
v 0.18000000 -0.00855951 0.07721885
v 0.00000000 -0.00529007 0.07271885
v 0.18000000 -0.00529007 0.07271885
v -0.00473158 0.00765586 0.08000000
v 0.00473158 0.00765586 0.08000000
v -0.00473158 -0.00765586 0.08000000
v 0.00473158 -0.00765586 0.08000000
v 0.00000000 -0.00473158 0.08765586
v 0.00000000 0.00473158 0.08765586
v 0.00000000 -0.00473158 0.07234414
v 0.00000000 0.00473158 0.07234414
v 0.00765586 0.00000000 0.07526842
v 0.00765586 0.00000000 0.08473158
v -0.00765586 0.00000000 0.07526842
v -0.00765586 0.00000000 0.08473158
v 0.00000000 0.00900000 0.08000000
v 0.00000000 -0.00900000 0.08000000
v -0.00278115 -0.00728115 0.08450000
v 0.00278115 -0.00728115 0.08450000
v -0.00278115 0.00728115 0.08450000
v 0.00278115 0.00728115 0.08450000
v -0.00278115 -0.00728115 0.07550000
v 0.00278115 -0.00728115 0.07550000
v -0.00278115 0.00728115 0.07550000
v 0.00278115 0.00728115 0.07550000
v 0.00728115 0.00450000 0.07721885
v 0.00728115 -0.00450000 0.07721885
v 0.00450000 -0.00278115 0.07271885
v 0.00450000 0.00278115 0.07271885
v 0.00728115 0.00450000 0.08278115
v 0.00728115 -0.00450000 0.08278115
v 0.00450000 -0.00278115 0.08728115
v 0.00450000 0.00278115 0.08728115
v 0.00900000 0.00000000 0.08000000
v -0.00728115 0.00450000 0.07721885
v -0.00728115 -0.00450000 0.07721885
v -0.00450000 -0.00278115 0.07271885
v -0.00450000 0.00278115 0.07271885
v -0.00728115 0.00450000 0.08278115
v -0.00728115 -0.00450000 0.08278115
v -0.00450000 -0.00278115 0.08728115
v -0.00450000 0.00278115 0.08728115
v -0.00900000 0.00000000 0.08000000
v 0.17526842 0.00765586 0.08000000
v 0.18473158 0.00765586 0.08000000
v 0.17526842 -0.00765586 0.08000000
v 0.18473158 -0.00765586 0.08000000
v 0.18000000 -0.00473158 0.08765586
v 0.18000000 0.00473158 0.08765586
v 0.18000000 -0.00473158 0.07234414
v 0.18000000 0.00473158 0.07234414
v 0.18765586 0.00000000 0.07526842
v 0.18765586 0.00000000 0.08473158
v 0.17234414 0.00000000 0.07526842
v 0.17234414 0.00000000 0.08473158
v 0.18000000 0.00900000 0.08000000
v 0.18000000 -0.00900000 0.08000000
v 0.17721885 -0.00728115 0.08450000
v 0.18278115 -0.00728115 0.08450000
v 0.17721885 0.00728115 0.08450000
v 0.18278115 0.00728115 0.08450000
v 0.17721885 -0.00728115 0.07550000
v 0.18278115 -0.00728115 0.07550000
v 0.17721885 0.00728115 0.07550000
v 0.18278115 0.00728115 0.07550000
v 0.18728115 0.00450000 0.07721885
v 0.18728115 -0.00450000 0.07721885
v 0.18450000 -0.00278115 0.07271885
v 0.18450000 0.00278115 0.07271885
v 0.18728115 0.00450000 0.08278115
v 0.18728115 -0.00450000 0.08278115
v 0.18450000 -0.00278115 0.08728115
v 0.18450000 0.00278115 0.08728115
v 0.18900000 0.00000000 0.08000000
v 0.17271885 0.00450000 0.07721885
v 0.17271885 -0.00450000 0.07721885
v 0.17550000 -0.00278115 0.07271885
v 0.17550000 0.00278115 0.07271885
v 0.17271885 0.00450000 0.08278115
v 0.17271885 -0.00450000 0.08278115
v 0.17550000 -0.00278115 0.08728115
v 0.17550000 0.00278115 0.08728115
v 0.17100000 0.00000000 0.08000000
v 0.00900000 0.18000000 0.08000000
v 0.00000000 0.18000000 0.08000000
v 0.00728115 0.00000000 0.07470993
v 0.00728115 0.18000000 0.07470993
v 0.00278115 0.00000000 0.07144049
v 0.00278115 0.18000000 0.07144049
v -0.00278115 0.00000000 0.07144049
v -0.00278115 0.18000000 0.07144049
v -0.00728115 0.00000000 0.07470993
v -0.00728115 0.18000000 0.07470993
v -0.00900000 0.18000000 0.08000000
v -0.00728115 0.00000000 0.08529007
v -0.00728115 0.18000000 0.08529007
v -0.00278115 0.00000000 0.08855951
v -0.00278115 0.18000000 0.08855951
v 0.00278115 0.00000000 0.08855951
v 0.00278115 0.18000000 0.08855951
v 0.00728115 0.00000000 0.08529007
v 0.00728115 0.18000000 0.08529007
v -0.00473158 0.18765586 0.08000000
v 0.00473158 0.18765586 0.08000000
v -0.00473158 0.17234414 0.08000000
v 0.00473158 0.17234414 0.08000000
v 0.00000000 0.17526842 0.08765586
v 0.00000000 0.18473158 0.08765586
v 0.00000000 0.17526842 0.07234414
v 0.00000000 0.18473158 0.07234414
v 0.00765586 0.18000000 0.07526842
v 0.00765586 0.18000000 0.08473158
v -0.00765586 0.18000000 0.07526842
v -0.00765586 0.18000000 0.08473158
v 0.00000000 0.18900000 0.08000000
v 0.00000000 0.17100000 0.08000000
v -0.00278115 0.17271885 0.08450000
v 0.00278115 0.17271885 0.08450000
v -0.00278115 0.18728115 0.08450000
v 0.00278115 0.18728115 0.08450000
v 0.00000000 0.18000000 0.08900000
v -0.00278115 0.17271885 0.07550000
v 0.00278115 0.17271885 0.07550000
v -0.00278115 0.18728115 0.07550000
v 0.00278115 0.18728115 0.07550000
v 0.00000000 0.18000000 0.07100000
v 0.00728115 0.18450000 0.07721885
v 0.00728115 0.17550000 0.07721885
v 0.00450000 0.17721885 0.07271885
v 0.00450000 0.18278115 0.07271885
v 0.00728115 0.18450000 0.08278115
v 0.00728115 0.17550000 0.08278115
v 0.00450000 0.17721885 0.08728115
v 0.00450000 0.18278115 0.08728115
v -0.00728115 0.18450000 0.07721885
v -0.00728115 0.17550000 0.07721885
v -0.00450000 0.17721885 0.07271885
v -0.00450000 0.18278115 0.07271885
v -0.00728115 0.18450000 0.08278115
v -0.00728115 0.17550000 0.08278115
v -0.00450000 0.17721885 0.08728115
v -0.00450000 0.18278115 0.08728115
v -0.18000000 0.00000000 0.08900000
v -0.18000000 0.00000000 0.08000000
v -0.18000000 0.00529007 0.08728115
v -0.18000000 0.00855951 0.08278115
v -0.18000000 0.00855951 0.07721885
v -0.18000000 0.00529007 0.07271885
v -0.18000000 0.00000000 0.07100000
v -0.18000000 -0.00529007 0.07271885
v -0.18000000 -0.00855951 0.07721885
v -0.18000000 -0.00855951 0.08278115
v -0.18000000 -0.00529007 0.08728115
v -0.18473158 0.00765586 0.08000000
v -0.17526842 0.00765586 0.08000000
v -0.18473158 -0.00765586 0.08000000
v -0.17526842 -0.00765586 0.08000000
v -0.18000000 -0.00473158 0.08765586
v -0.18000000 0.00473158 0.08765586
v -0.18000000 -0.00473158 0.07234414
v -0.18000000 0.00473158 0.07234414
v -0.17234414 0.00000000 0.07526842
v -0.17234414 0.00000000 0.08473158
v -0.18765586 0.00000000 0.07526842
v -0.18765586 0.00000000 0.08473158
v -0.18000000 0.00900000 0.08000000
v -0.18000000 -0.00900000 0.08000000
v -0.18278115 -0.00728115 0.08450000
v -0.17721885 -0.00728115 0.08450000
v -0.18278115 0.00728115 0.08450000
v -0.17721885 0.00728115 0.08450000
v -0.18278115 -0.00728115 0.07550000
v -0.17721885 -0.00728115 0.07550000
v -0.18278115 0.00728115 0.07550000
v -0.17721885 0.00728115 0.07550000
v -0.17271885 0.00450000 0.07721885
v -0.17271885 -0.00450000 0.07721885
v -0.17550000 -0.00278115 0.07271885
v -0.17550000 0.00278115 0.07271885
v -0.17271885 0.00450000 0.08278115
v -0.17271885 -0.00450000 0.08278115
v -0.17550000 -0.00278115 0.08728115
v -0.17550000 0.00278115 0.08728115
v -0.17100000 0.00000000 0.08000000
v -0.18728115 0.00450000 0.07721885
v -0.18728115 -0.00450000 0.07721885
v -0.18450000 -0.00278115 0.07271885
v -0.18450000 0.00278115 0.07271885
v -0.18728115 0.00450000 0.08278115
v -0.18728115 -0.00450000 0.08278115
v -0.18450000 -0.00278115 0.08728115
v -0.18450000 0.00278115 0.08728115
v -0.18900000 0.00000000 0.08000000
v 0.00900000 -0.18000000 0.08000000
v -0.00000000 -0.18000000 0.08000000
v 0.00728115 -0.18000000 0.08529007
v 0.00278115 -0.18000000 0.08855951
v -0.00278115 -0.18000000 0.08855951
v -0.00728115 -0.18000000 0.08529007
v -0.00900000 -0.18000000 0.08000000
v -0.00728115 -0.18000000 0.07470993
v -0.00278115 -0.18000000 0.07144049
v 0.00278115 -0.18000000 0.07144049
v 0.00728115 -0.18000000 0.07470993
v -0.00473158 -0.17234414 0.08000000
v 0.00473158 -0.17234414 0.08000000
v -0.00473158 -0.18765586 0.08000000
v 0.00473158 -0.18765586 0.08000000
v -0.00000000 -0.18473158 0.08765586
v -0.00000000 -0.17526842 0.08765586
v -0.00000000 -0.18473158 0.07234414
v -0.00000000 -0.17526842 0.07234414
v 0.00765586 -0.18000000 0.07526842
v 0.00765586 -0.18000000 0.08473158
v -0.00765586 -0.18000000 0.07526842
v -0.00765586 -0.18000000 0.08473158
v -0.00000000 -0.17100000 0.08000000
v -0.00000000 -0.18900000 0.08000000
v -0.00278115 -0.18728115 0.08450000
v 0.00278115 -0.18728115 0.08450000
v -0.00278115 -0.17271885 0.08450000
v 0.00278115 -0.17271885 0.08450000
v -0.00000000 -0.18000000 0.08900000
v -0.00278115 -0.18728115 0.07550000
v 0.00278115 -0.18728115 0.07550000
v -0.00278115 -0.17271885 0.07550000
v 0.00278115 -0.17271885 0.07550000
v -0.00000000 -0.18000000 0.07100000
v 0.00728115 -0.17550000 0.07721885
v 0.00728115 -0.18450000 0.07721885
v 0.00450000 -0.18278115 0.07271885
v 0.00450000 -0.17721885 0.07271885
v 0.00728115 -0.17550000 0.08278115
v 0.00728115 -0.18450000 0.08278115
v 0.00450000 -0.18278115 0.08728115
v 0.00450000 -0.17721885 0.08728115
v -0.00728115 -0.17550000 0.07721885
v -0.00728115 -0.18450000 0.07721885
v -0.00450000 -0.18278115 0.07271885
v -0.00450000 -0.17721885 0.07271885
v -0.00728115 -0.17550000 0.08278115
v -0.00728115 -0.18450000 0.08278115
v -0.00450000 -0.18278115 0.08728115
v -0.00450000 -0.17721885 0.08728115
f 1 11 2
f 2 11 12
f 2 12 3
f 3 12 13
f 3 13 4
f 4 13 14
f 4 14 5
f 5 14 15
f 5 15 6
f 6 15 16
f 6 16 7
f 7 16 17
f 7 17 8
f 8 17 18
f 8 18 9
f 9 18 19
f 9 19 10
f 10 19 20
f 10 20 1
f 1 20 11
f 11 21 12
f 12 21 22
f 12 22 13
f 13 22 23
f 13 23 14
f 14 23 24
f 14 24 15
f 15 24 25
f 15 25 16
f 16 25 26
f 16 26 17
f 17 26 27
f 17 27 18
f 18 27 28
f 18 28 19
f 19 28 29
f 19 29 20
f 20 29 30
f 20 30 11
f 11 30 21
f 21 31 22
f 22 31 32
f 22 32 23
f 23 32 33
f 23 33 24
f 24 33 34
f 24 34 25
f 25 34 35
f 25 35 26
f 26 35 36
f 26 36 27
f 27 36 37
f 27 37 28
f 28 37 38
f 28 38 29
f 29 38 39
f 29 39 30
f 30 39 40
f 30 40 21
f 21 40 31
f 31 41 32
f 32 41 42
f 32 42 33
f 33 42 43
f 33 43 34
f 34 43 44
f 34 44 35
f 35 44 45
f 35 45 36
f 36 45 46
f 36 46 37
f 37 46 47
f 37 47 38
f 38 47 48
f 38 48 39
f 39 48 49
f 39 49 40
f 40 49 50
f 40 50 31
f 31 50 41
f 41 51 42
f 42 51 52
f 42 52 43
f 43 52 53
f 43 53 44
f 44 53 54
f 44 54 45
f 45 54 55
f 45 55 46
f 46 55 56
f 46 56 47
f 47 56 57
f 47 57 48
f 48 57 58
f 48 58 49
f 49 58 59
f 49 59 50
f 50 59 60
f 50 60 41
f 41 60 51
f 51 61 52
f 52 61 62
f 52 62 53
f 53 62 63
f 53 63 54
f 54 63 64
f 54 64 55
f 55 64 65
f 55 65 56
f 56 65 66
f 56 66 57
f 57 66 67
f 57 67 58
f 58 67 68
f 58 68 59
f 59 68 69
f 59 69 60
f 60 69 70
f 60 70 51
f 51 70 61
f 61 71 62
f 62 71 72
f 62 72 63
f 63 72 73
f 63 73 64
f 64 73 74
f 64 74 65
f 65 74 75
f 65 75 66
f 66 75 76
f 66 76 67
f 67 76 77
f 67 77 68
f 68 77 78
f 68 78 69
f 69 78 79
f 69 79 70
f 70 79 80
f 70 80 61
f 61 80 71
f 71 81 72
f 72 81 82
f 72 82 73
f 73 82 83
f 73 83 74
f 74 83 84
f 74 84 75
f 75 84 85
f 75 85 76
f 76 85 86
f 76 86 77
f 77 86 87
f 77 87 78
f 78 87 88
f 78 88 79
f 79 88 89
f 79 89 80
f 80 89 90
f 80 90 71
f 71 90 81
f 81 91 82
f 82 91 92
f 82 92 83
f 83 92 93
f 83 93 84
f 84 93 94
f 84 94 85
f 85 94 95
f 85 95 86
f 86 95 96
f 86 96 87
f 87 96 97
f 87 97 88
f 88 97 98
f 88 98 89
f 89 98 99
f 89 99 90
f 90 99 100
f 90 100 81
f 81 100 91
f 91 101 92
f 92 101 102
f 92 102 93
f 93 102 103
f 93 103 94
f 94 103 104
f 94 104 95
f 95 104 105
f 95 105 96
f 96 105 106
f 96 106 97
f 97 106 107
f 97 107 98
f 98 107 108
f 98 108 99
f 99 108 109
f 99 109 100
f 100 109 110
f 100 110 91
f 91 110 101
f 101 111 102
f 102 111 112
f 102 112 103
f 103 112 113
f 103 113 104
f 104 113 114
f 104 114 105
f 105 114 115
f 105 115 106
f 106 115 116
f 106 116 107
f 107 116 117
f 107 117 108
f 108 117 118
f 108 118 109
f 109 118 119
f 109 119 110
f 110 119 120
f 110 120 101
f 101 120 111
f 111 121 112
f 112 121 122
f 112 122 113
f 113 122 123
f 113 123 114
f 114 123 124
f 114 124 115
f 115 124 125
f 115 125 116
f 116 125 126
f 116 126 117
f 117 126 127
f 117 127 118
f 118 127 128
f 118 128 119
f 119 128 129
f 119 129 120
f 120 129 130
f 120 130 111
f 111 130 121
f 121 131 122
f 122 131 132
f 122 132 123
f 123 132 133
f 123 133 124
f 124 133 134
f 124 134 125
f 125 134 135
f 125 135 126
f 126 135 136
f 126 136 127
f 127 136 137
f 127 137 128
f 128 137 138
f 128 138 129
f 129 138 139
f 129 139 130
f 130 139 140
f 130 140 121
f 121 140 131
f 131 141 132
f 132 141 142
f 132 142 133
f 133 142 143
f 133 143 134
f 134 143 144
f 134 144 135
f 135 144 145
f 135 145 136
f 136 145 146
f 136 146 137
f 137 146 147
f 137 147 138
f 138 147 148
f 138 148 139
f 139 148 149
f 139 149 140
f 140 149 150
f 140 150 131
f 131 150 141
f 141 151 142
f 142 151 152
f 142 152 143
f 143 152 153
f 143 153 144
f 144 153 154
f 144 154 145
f 145 154 155
f 145 155 146
f 146 155 156
f 146 156 147
f 147 156 157
f 147 157 148
f 148 157 158
f 148 158 149
f 149 158 159
f 149 159 150
f 150 159 160
f 150 160 141
f 141 160 151
f 151 161 152
f 152 161 162
f 152 162 153
f 153 162 163
f 153 163 154
f 154 163 164
f 154 164 155
f 155 164 165
f 155 165 156
f 156 165 166
f 156 166 157
f 157 166 167
f 157 167 158
f 158 167 168
f 158 168 159
f 159 168 169
f 159 169 160
f 160 169 170
f 160 170 151
f 151 170 161
f 161 171 162
f 162 171 172
f 162 172 163
f 163 172 173
f 163 173 164
f 164 173 174
f 164 174 165
f 165 174 175
f 165 175 166
f 166 175 176
f 166 176 167
f 167 176 177
f 167 177 168
f 168 177 178
f 168 178 169
f 169 178 179
f 169 179 170
f 170 179 180
f 170 180 161
f 161 180 171
f 171 181 172
f 172 181 182
f 172 182 173
f 173 182 183
f 173 183 174
f 174 183 184
f 174 184 175
f 175 184 185
f 175 185 176
f 176 185 186
f 176 186 177
f 177 186 187
f 177 187 178
f 178 187 188
f 178 188 179
f 179 188 189
f 179 189 180
f 180 189 190
f 180 190 171
f 171 190 181
f 181 191 182
f 182 191 192
f 182 192 183
f 183 192 193
f 183 193 184
f 184 193 194
f 184 194 185
f 185 194 195
f 185 195 186
f 186 195 196
f 186 196 187
f 187 196 197
f 187 197 188
f 188 197 198
f 188 198 189
f 189 198 199
f 189 199 190
f 190 199 200
f 190 200 181
f 181 200 191
f 191 201 192
f 192 201 202
f 192 202 193
f 193 202 203
f 193 203 194
f 194 203 204
f 194 204 195
f 195 204 205
f 195 205 196
f 196 205 206
f 196 206 197
f 197 206 207
f 197 207 198
f 198 207 208
f 198 208 199
f 199 208 209
f 199 209 200
f 200 209 210
f 200 210 191
f 191 210 201
f 201 211 202
f 202 211 212
f 202 212 203
f 203 212 213
f 203 213 204
f 204 213 214
f 204 214 205
f 205 214 215
f 205 215 206
f 206 215 216
f 206 216 207
f 207 216 217
f 207 217 208
f 208 217 218
f 208 218 209
f 209 218 219
f 209 219 210
f 210 219 220
f 210 220 201
f 201 220 211
f 211 221 212
f 212 221 222
f 212 222 213
f 213 222 223
f 213 223 214
f 214 223 224
f 214 224 215
f 215 224 225
f 215 225 216
f 216 225 226
f 216 226 217
f 217 226 227
f 217 227 218
f 218 227 228
f 218 228 219
f 219 228 229
f 219 229 220
f 220 229 230
f 220 230 211
f 211 230 221
f 221 231 222
f 222 231 232
f 222 232 223
f 223 232 233
f 223 233 224
f 224 233 234
f 224 234 225
f 225 234 235
f 225 235 226
f 226 235 236
f 226 236 227
f 227 236 237
f 227 237 228
f 228 237 238
f 228 238 229
f 229 238 239
f 229 239 230
f 230 239 240
f 230 240 221
f 221 240 231
f 231 241 232
f 232 241 242
f 232 242 233
f 233 242 243
f 233 243 234
f 234 243 244
f 234 244 235
f 235 244 245
f 235 245 236
f 236 245 246
f 236 246 237
f 237 246 247
f 237 247 238
f 238 247 248
f 238 248 239
f 239 248 249
f 239 249 240
f 240 249 250
f 240 250 231
f 231 250 241
f 241 251 242
f 242 251 252
f 242 252 243
f 243 252 253
f 243 253 244
f 244 253 254
f 244 254 245
f 245 254 255
f 245 255 246
f 246 255 256
f 246 256 247
f 247 256 257
f 247 257 248
f 248 257 258
f 248 258 249
f 249 258 259
f 249 259 250
f 250 259 260
f 250 260 241
f 241 260 251
f 251 261 252
f 252 261 262
f 252 262 253
f 253 262 263
f 253 263 254
f 254 263 264
f 254 264 255
f 255 264 265
f 255 265 256
f 256 265 266
f 256 266 257
f 257 266 267
f 257 267 258
f 258 267 268
f 258 268 259
f 259 268 269
f 259 269 260
f 260 269 270
f 260 270 251
f 251 270 261
f 261 271 262
f 262 271 272
f 262 272 263
f 263 272 273
f 263 273 264
f 264 273 274
f 264 274 265
f 265 274 275
f 265 275 266
f 266 275 276
f 266 276 267
f 267 276 277
f 267 277 268
f 268 277 278
f 268 278 269
f 269 278 279
f 269 279 270
f 270 279 280
f 270 280 261
f 261 280 271
f 271 281 272
f 272 281 282
f 272 282 273
f 273 282 283
f 273 283 274
f 274 283 284
f 274 284 275
f 275 284 285
f 275 285 276
f 276 285 286
f 276 286 277
f 277 286 287
f 277 287 278
f 278 287 288
f 278 288 279
f 279 288 289
f 279 289 280
f 280 289 290
f 280 290 271
f 271 290 281
f 281 291 282
f 282 291 292
f 282 292 283
f 283 292 293
f 283 293 284
f 284 293 294
f 284 294 285
f 285 294 295
f 285 295 286
f 286 295 296
f 286 296 287
f 287 296 297
f 287 297 288
f 288 297 298
f 288 298 289
f 289 298 299
f 289 299 290
f 290 299 300
f 290 300 281
f 281 300 291
f 291 301 292
f 292 301 302
f 292 302 293
f 293 302 303
f 293 303 294
f 294 303 304
f 294 304 295
f 295 304 305
f 295 305 296
f 296 305 306
f 296 306 297
f 297 306 307
f 297 307 298
f 298 307 308
f 298 308 299
f 299 308 309
f 299 309 300
f 300 309 310
f 300 310 291
f 291 310 301
f 301 311 302
f 302 311 312
f 302 312 303
f 303 312 313
f 303 313 304
f 304 313 314
f 304 314 305
f 305 314 315
f 305 315 306
f 306 315 316
f 306 316 307
f 307 316 317
f 307 317 308
f 308 317 318
f 308 318 309
f 309 318 319
f 309 319 310
f 310 319 320
f 310 320 301
f 301 320 311
f 311 321 312
f 312 321 322
f 312 322 313
f 313 322 323
f 313 323 314
f 314 323 324
f 314 324 315
f 315 324 325
f 315 325 316
f 316 325 326
f 316 326 317
f 317 326 327
f 317 327 318
f 318 327 328
f 318 328 319
f 319 328 329
f 319 329 320
f 320 329 330
f 320 330 311
f 311 330 321
f 321 331 322
f 322 331 332
f 322 332 323
f 323 332 333
f 323 333 324
f 324 333 334
f 324 334 325
f 325 334 335
f 325 335 326
f 326 335 336
f 326 336 327
f 327 336 337
f 327 337 328
f 328 337 338
f 328 338 329
f 329 338 339
f 329 339 330
f 330 339 340
f 330 340 321
f 321 340 331
f 331 341 332
f 332 341 342
f 332 342 333
f 333 342 343
f 333 343 334
f 334 343 344
f 334 344 335
f 335 344 345
f 335 345 336
f 336 345 346
f 336 346 337
f 337 346 347
f 337 347 338
f 338 347 348
f 338 348 339
f 339 348 349
f 339 349 340
f 340 349 350
f 340 350 331
f 331 350 341
f 341 351 342
f 342 351 352
f 342 352 343
f 343 352 353
f 343 353 344
f 344 353 354
f 344 354 345
f 345 354 355
f 345 355 346
f 346 355 356
f 346 356 347
f 347 356 357
f 347 357 348
f 348 357 358
f 348 358 349
f 349 358 359
f 349 359 350
f 350 359 360
f 350 360 341
f 341 360 351
f 351 361 352
f 352 361 362
f 352 362 353
f 353 362 363
f 353 363 354
f 354 363 364
f 354 364 355
f 355 364 365
f 355 365 356
f 356 365 366
f 356 366 357
f 357 366 367
f 357 367 358
f 358 367 368
f 358 368 359
f 359 368 369
f 359 369 360
f 360 369 370
f 360 370 351
f 351 370 361
f 361 371 362
f 362 371 372
f 362 372 363
f 363 372 373
f 363 373 364
f 364 373 374
f 364 374 365
f 365 374 375
f 365 375 366
f 366 375 376
f 366 376 367
f 367 376 377
f 367 377 368
f 368 377 378
f 368 378 369
f 369 378 379
f 369 379 370
f 370 379 380
f 370 380 361
f 361 380 371
f 371 381 372
f 372 381 382
f 372 382 373
f 373 382 383
f 373 383 374
f 374 383 384
f 374 384 375
f 375 384 385
f 375 385 376
f 376 385 386
f 376 386 377
f 377 386 387
f 377 387 378
f 378 387 388
f 378 388 379
f 379 388 389
f 379 389 380
f 380 389 390
f 380 390 371
f 371 390 381
f 381 391 382
f 382 391 392
f 382 392 383
f 383 392 393
f 383 393 384
f 384 393 394
f 384 394 385
f 385 394 395
f 385 395 386
f 386 395 396
f 386 396 387
f 387 396 397
f 387 397 388
f 388 397 398
f 388 398 389
f 389 398 399
f 389 399 390
f 390 399 400
f 390 400 381
f 381 400 391
f 391 1 392
f 392 1 2
f 392 2 393
f 393 2 3
f 393 3 394
f 394 3 4
f 394 4 395
f 395 4 5
f 395 5 396
f 396 5 6
f 396 6 397
f 397 6 7
f 397 7 398
f 398 7 8
f 398 8 399
f 399 8 9
f 399 9 400
f 400 9 10
f 400 10 391
f 391 10 1
f 402 401 405
f 402 405 403
f 403 405 406
f 403 406 404
f 405 401 407
f 405 407 406
f 406 407 408
f 406 408 404
f 407 401 409
f 407 409 408
f 408 409 410
f 408 410 404
f 409 401 411
f 409 411 410
f 410 411 412
f 410 412 404
f 411 401 413
f 411 413 412
f 412 413 414
f 412 414 404
f 413 401 415
f 413 415 414
f 414 415 416
f 414 416 404
f 415 401 417
f 415 417 416
f 416 417 418
f 416 418 404
f 417 401 419
f 417 419 418
f 418 419 420
f 418 420 404
f 419 401 421
f 419 421 420
f 420 421 422
f 420 422 404
f 421 401 423
f 421 423 422
f 422 423 424
f 422 424 404
f 423 401 425
f 423 425 424
f 424 425 426
f 424 426 404
f 425 401 427
f 425 427 426
f 426 427 428
f 426 428 404
f 427 401 429
f 427 429 428
f 428 429 430
f 428 430 404
f 429 401 431
f 429 431 430
f 430 431 432
f 430 432 404
f 431 401 433
f 431 433 432
f 432 433 434
f 432 434 404
f 433 401 435
f 433 435 434
f 434 435 436
f 434 436 404
f 435 401 437
f 435 437 436
f 436 437 438
f 436 438 404
f 437 401 439
f 437 439 438
f 438 439 440
f 438 440 404
f 439 401 441
f 439 441 440
f 440 441 442
f 440 442 404
f 441 401 402
f 441 402 442
f 442 402 403
f 442 403 404
f 444 443 447
f 444 447 445
f 445 447 448
f 445 448 446
f 447 443 449
f 447 449 448
f 448 449 450
f 448 450 446
f 449 443 451
f 449 451 450
f 450 451 452
f 450 452 446
f 451 443 453
f 451 453 452
f 452 453 454
f 452 454 446
f 453 443 455
f 453 455 454
f 454 455 456
f 454 456 446
f 455 443 457
f 455 457 456
f 456 457 458
f 456 458 446
f 457 443 459
f 457 459 458
f 458 459 460
f 458 460 446
f 459 443 461
f 459 461 460
f 460 461 462
f 460 462 446
f 461 443 463
f 461 463 462
f 462 463 464
f 462 464 446
f 463 443 444
f 463 444 464
f 464 444 445
f 464 445 446
f 465 500 481
f 500 476 503
f 481 503 470
f 500 503 481
f 465 481 477
f 481 470 482
f 477 482 466
f 481 482 477
f 465 477 485
f 477 466 486
f 485 486 472
f 477 486 485
f 465 485 496
f 485 472 499
f 496 499 475
f 485 499 496
f 465 496 500
f 496 475 504
f 500 504 476
f 496 504 500
f 466 482 491
f 482 470 494
f 491 494 474
f 482 494 491
f 470 503 455
f 503 476 502
f 455 502 469
f 503 502 455
f 476 504 501
f 504 475 497
f 501 497 467
f 504 497 501
f 475 499 498
f 499 472 444
f 498 444 471
f 499 444 498
f 472 486 490
f 486 466 487
f 490 487 473
f 486 487 490
f 468 492 480
f 492 474 493
f 480 493 469
f 492 493 480
f 468 480 478
f 480 469 479
f 478 479 467
f 480 479 478
f 468 478 484
f 478 467 483
f 484 483 471
f 478 483 484
f 468 484 488
f 484 471 489
f 488 489 473
f 484 489 488
f 468 488 492
f 488 473 495
f 492 495 474
f 488 495 492
f 469 493 455
f 493 474 494
f 455 494 470
f 493 494 455
f 467 479 501
f 479 469 502
f 501 502 476
f 479 502 501
f 471 483 498
f 483 467 497
f 498 497 475
f 483 497 498
f 473 489 490
f 489 471 444
f 490 444 472
f 489 444 490
f 474 495 491
f 495 473 487
f 491 487 466
f 495 487 491
f 505 540 521
f 540 516 543
f 521 543 510
f 540 543 521
f 505 521 517
f 521 510 522
f 517 522 506
f 521 522 517
f 505 517 525
f 517 506 526
f 525 526 512
f 517 526 525
f 505 525 536
f 525 512 539
f 536 539 515
f 525 539 536
f 505 536 540
f 536 515 544
f 540 544 516
f 536 544 540
f 506 522 531
f 522 510 534
f 531 534 514
f 522 534 531
f 510 543 456
f 543 516 542
f 456 542 509
f 543 542 456
f 516 544 541
f 544 515 537
f 541 537 507
f 544 537 541
f 515 539 538
f 539 512 445
f 538 445 511
f 539 445 538
f 512 526 530
f 526 506 527
f 530 527 513
f 526 527 530
f 508 532 520
f 532 514 533
f 520 533 509
f 532 533 520
f 508 520 518
f 520 509 519
f 518 519 507
f 520 519 518
f 508 518 524
f 518 507 523
f 524 523 511
f 518 523 524
f 508 524 528
f 524 511 529
f 528 529 513
f 524 529 528
f 508 528 532
f 528 513 535
f 532 535 514
f 528 535 532
f 509 533 456
f 533 514 534
f 456 534 510
f 533 534 456
f 507 519 541
f 519 509 542
f 541 542 516
f 519 542 541
f 511 523 538
f 523 507 537
f 538 537 515
f 523 537 538
f 513 529 530
f 529 511 445
f 530 445 512
f 529 445 530
f 514 535 531
f 535 513 527
f 531 527 506
f 535 527 531
f 495 443 547
f 495 547 545
f 545 547 548
f 545 548 546
f 547 443 549
f 547 549 548
f 548 549 550
f 548 550 546
f 549 443 551
f 549 551 550
f 550 551 552
f 550 552 546
f 551 443 553
f 551 553 552
f 552 553 554
f 552 554 546
f 553 443 504
f 553 504 554
f 554 504 555
f 554 555 546
f 504 443 556
f 504 556 555
f 555 556 557
f 555 557 546
f 556 443 558
f 556 558 557
f 557 558 559
f 557 559 546
f 558 443 560
f 558 560 559
f 559 560 561
f 559 561 546
f 560 443 562
f 560 562 561
f 561 562 563
f 561 563 546
f 562 443 495
f 562 495 563
f 563 495 545
f 563 545 546
f 465 500 481
f 500 476 503
f 481 503 470
f 500 503 481
f 465 481 477
f 481 470 482
f 477 482 466
f 481 482 477
f 465 477 485
f 477 466 486
f 485 486 472
f 477 486 485
f 465 485 496
f 485 472 499
f 496 499 475
f 485 499 496
f 465 496 500
f 496 475 504
f 500 504 476
f 496 504 500
f 466 482 491
f 482 470 494
f 491 494 474
f 482 494 491
f 470 503 455
f 503 476 502
f 455 502 469
f 503 502 455
f 476 504 501
f 504 475 497
f 501 497 467
f 504 497 501
f 475 499 498
f 499 472 444
f 498 444 471
f 499 444 498
f 472 486 490
f 486 466 487
f 490 487 473
f 486 487 490
f 468 492 480
f 492 474 493
f 480 493 469
f 492 493 480
f 468 480 478
f 480 469 479
f 478 479 467
f 480 479 478
f 468 478 484
f 478 467 483
f 484 483 471
f 478 483 484
f 468 484 488
f 484 471 489
f 488 489 473
f 484 489 488
f 468 488 492
f 488 473 495
f 492 495 474
f 488 495 492
f 469 493 455
f 493 474 494
f 455 494 470
f 493 494 455
f 467 479 501
f 479 469 502
f 501 502 476
f 479 502 501
f 471 483 498
f 483 467 497
f 498 497 475
f 483 497 498
f 473 489 490
f 489 471 444
f 490 444 472
f 489 444 490
f 474 495 491
f 495 473 487
f 491 487 466
f 495 487 491
f 564 600 580
f 600 575 603
f 580 603 569
f 600 603 580
f 564 580 576
f 580 569 581
f 576 581 565
f 580 581 576
f 564 576 585
f 576 565 586
f 585 586 571
f 576 586 585
f 564 585 596
f 585 571 599
f 596 599 574
f 585 599 596
f 564 596 600
f 596 574 555
f 600 555 575
f 596 555 600
f 565 581 592
f 581 569 595
f 592 595 573
f 581 595 592
f 569 603 582
f 603 575 602
f 582 602 568
f 603 602 582
f 575 555 601
f 555 574 597
f 601 597 566
f 555 597 601
f 574 599 598
f 599 571 587
f 598 587 570
f 599 587 598
f 571 586 591
f 586 565 588
f 591 588 572
f 586 588 591
f 567 593 579
f 593 573 594
f 579 594 568
f 593 594 579
f 567 579 577
f 579 568 578
f 577 578 566
f 579 578 577
f 567 577 584
f 577 566 583
f 584 583 570
f 577 583 584
f 567 584 589
f 584 570 590
f 589 590 572
f 584 590 589
f 567 589 593
f 589 572 545
f 593 545 573
f 589 545 593
f 568 594 582
f 594 573 595
f 582 595 569
f 594 595 582
f 566 578 601
f 578 568 602
f 601 602 575
f 578 602 601
f 570 583 598
f 583 566 597
f 598 597 574
f 583 597 598
f 572 590 591
f 590 570 587
f 591 587 571
f 590 587 591
f 573 545 592
f 545 572 588
f 592 588 565
f 545 588 592
f 455 443 453
f 455 453 604
f 604 453 606
f 604 606 605
f 453 443 451
f 453 451 606
f 606 451 607
f 606 607 605
f 451 443 449
f 451 449 607
f 607 449 608
f 607 608 605
f 449 443 447
f 449 447 608
f 608 447 609
f 608 609 605
f 447 443 444
f 447 444 609
f 609 444 610
f 609 610 605
f 444 443 463
f 444 463 610
f 610 463 611
f 610 611 605
f 463 443 461
f 463 461 611
f 611 461 612
f 611 612 605
f 461 443 459
f 461 459 612
f 612 459 613
f 612 613 605
f 459 443 457
f 459 457 613
f 613 457 614
f 613 614 605
f 457 443 455
f 457 455 614
f 614 455 604
f 614 604 605
f 465 500 481
f 500 476 503
f 481 503 470
f 500 503 481
f 465 481 477
f 481 470 482
f 477 482 466
f 481 482 477
f 465 477 485
f 477 466 486
f 485 486 472
f 477 486 485
f 465 485 496
f 485 472 499
f 496 499 475
f 485 499 496
f 465 496 500
f 496 475 504
f 500 504 476
f 496 504 500
f 466 482 491
f 482 470 494
f 491 494 474
f 482 494 491
f 470 503 455
f 503 476 502
f 455 502 469
f 503 502 455
f 476 504 501
f 504 475 497
f 501 497 467
f 504 497 501
f 475 499 498
f 499 472 444
f 498 444 471
f 499 444 498
f 472 486 490
f 486 466 487
f 490 487 473
f 486 487 490
f 468 492 480
f 492 474 493
f 480 493 469
f 492 493 480
f 468 480 478
f 480 469 479
f 478 479 467
f 480 479 478
f 468 478 484
f 478 467 483
f 484 483 471
f 478 483 484
f 468 484 488
f 484 471 489
f 488 489 473
f 484 489 488
f 468 488 492
f 488 473 495
f 492 495 474
f 488 495 492
f 469 493 455
f 493 474 494
f 455 494 470
f 493 494 455
f 467 479 501
f 479 469 502
f 501 502 476
f 479 502 501
f 471 483 498
f 483 467 497
f 498 497 475
f 483 497 498
f 473 489 490
f 489 471 444
f 490 444 472
f 489 444 490
f 474 495 491
f 495 473 487
f 491 487 466
f 495 487 491
f 615 650 631
f 650 626 653
f 631 653 620
f 650 653 631
f 615 631 627
f 631 620 632
f 627 632 616
f 631 632 627
f 615 627 635
f 627 616 636
f 635 636 622
f 627 636 635
f 615 635 646
f 635 622 649
f 646 649 625
f 635 649 646
f 615 646 650
f 646 625 654
f 650 654 626
f 646 654 650
f 616 632 641
f 632 620 644
f 641 644 624
f 632 644 641
f 620 653 604
f 653 626 652
f 604 652 619
f 653 652 604
f 626 654 651
f 654 625 647
f 651 647 617
f 654 647 651
f 625 649 648
f 649 622 610
f 648 610 621
f 649 610 648
f 622 636 640
f 636 616 637
f 640 637 623
f 636 637 640
f 618 642 630
f 642 624 643
f 630 643 619
f 642 643 630
f 618 630 628
f 630 619 629
f 628 629 617
f 630 629 628
f 618 628 634
f 628 617 633
f 634 633 621
f 628 633 634
f 618 634 638
f 634 621 639
f 638 639 623
f 634 639 638
f 618 638 642
f 638 623 645
f 642 645 624
f 638 645 642
f 619 643 604
f 643 624 644
f 604 644 620
f 643 644 604
f 617 629 651
f 629 619 652
f 651 652 626
f 629 652 651
f 621 633 648
f 633 617 647
f 648 647 625
f 633 647 648
f 623 639 640
f 639 621 610
f 640 610 622
f 639 610 640
f 624 645 641
f 645 623 637
f 641 637 616
f 645 637 641
f 495 443 562
f 495 562 655
f 655 562 657
f 655 657 656
f 562 443 560
f 562 560 657
f 657 560 658
f 657 658 656
f 560 443 558
f 560 558 658
f 658 558 659
f 658 659 656
f 558 443 556
f 558 556 659
f 659 556 660
f 659 660 656
f 556 443 504
f 556 504 660
f 660 504 661
f 660 661 656
f 504 443 553
f 504 553 661
f 661 553 662
f 661 662 656
f 553 443 551
f 553 551 662
f 662 551 663
f 662 663 656
f 551 443 549
f 551 549 663
f 663 549 664
f 663 664 656
f 549 443 547
f 549 547 664
f 664 547 665
f 664 665 656
f 547 443 495
f 547 495 665
f 665 495 655
f 665 655 656
f 465 500 481
f 500 476 503
f 481 503 470
f 500 503 481
f 465 481 477
f 481 470 482
f 477 482 466
f 481 482 477
f 465 477 485
f 477 466 486
f 485 486 472
f 477 486 485
f 465 485 496
f 485 472 499
f 496 499 475
f 485 499 496
f 465 496 500
f 496 475 504
f 500 504 476
f 496 504 500
f 466 482 491
f 482 470 494
f 491 494 474
f 482 494 491
f 470 503 455
f 503 476 502
f 455 502 469
f 503 502 455
f 476 504 501
f 504 475 497
f 501 497 467
f 504 497 501
f 475 499 498
f 499 472 444
f 498 444 471
f 499 444 498
f 472 486 490
f 486 466 487
f 490 487 473
f 486 487 490
f 468 492 480
f 492 474 493
f 480 493 469
f 492 493 480
f 468 480 478
f 480 469 479
f 478 479 467
f 480 479 478
f 468 478 484
f 478 467 483
f 484 483 471
f 478 483 484
f 468 484 488
f 484 471 489
f 488 489 473
f 484 489 488
f 468 488 492
f 488 473 495
f 492 495 474
f 488 495 492
f 469 493 455
f 493 474 494
f 455 494 470
f 493 494 455
f 467 479 501
f 479 469 502
f 501 502 476
f 479 502 501
f 471 483 498
f 483 467 497
f 498 497 475
f 483 497 498
f 473 489 490
f 489 471 444
f 490 444 472
f 489 444 490
f 474 495 491
f 495 473 487
f 491 487 466
f 495 487 491
f 666 702 682
f 702 677 705
f 682 705 671
f 702 705 682
f 666 682 678
f 682 671 683
f 678 683 667
f 682 683 678
f 666 678 687
f 678 667 688
f 687 688 673
f 678 688 687
f 666 687 698
f 687 673 701
f 698 701 676
f 687 701 698
f 666 698 702
f 698 676 661
f 702 661 677
f 698 661 702
f 667 683 694
f 683 671 697
f 694 697 675
f 683 697 694
f 671 705 684
f 705 677 704
f 684 704 670
f 705 704 684
f 677 661 703
f 661 676 699
f 703 699 668
f 661 699 703
f 676 701 700
f 701 673 689
f 700 689 672
f 701 689 700
f 673 688 693
f 688 667 690
f 693 690 674
f 688 690 693
f 669 695 681
f 695 675 696
f 681 696 670
f 695 696 681
f 669 681 679
f 681 670 680
f 679 680 668
f 681 680 679
f 669 679 686
f 679 668 685
f 686 685 672
f 679 685 686
f 669 686 691
f 686 672 692
f 691 692 674
f 686 692 691
f 669 691 695
f 691 674 655
f 695 655 675
f 691 655 695
f 670 696 684
f 696 675 697
f 684 697 671
f 696 697 684
f 668 680 703
f 680 670 704
f 703 704 677
f 680 704 703
f 672 685 700
f 685 668 699
f 700 699 676
f 685 699 700
f 674 692 693
f 692 672 689
f 693 689 673
f 692 689 693
f 675 655 694
f 655 674 690
f 694 690 667
f 655 690 694

